<svg width="18" height="18" viewBox="0 0 18 18" fill="none" xmlns="http://www.w3.org/2000/svg">
<path fill-rule="evenodd" clip-rule="evenodd" d="M5 2C3.34315 2 2 3.34315 2 5V13C2 14.6569 3.34315 16 5 16H13C14.6569 16 16 14.6569 16 13V5C16 3.34315 14.6569 2 13 2H5ZM0 5C0 2.23858 2.23858 0 5 0H13C15.7614 0 18 2.23858 18 5V13C18 15.7614 15.7614 18 13 18H5C2.23858 18 0 15.7614 0 13V5Z" fill="white"/>
<path fill-rule="evenodd" clip-rule="evenodd" d="M9.34225 6.69193C8.85678 6.61994 8.36096 6.70286 7.92533 6.9289C7.4897 7.15495 7.13643 7.51259 6.91578 7.95098C6.69513 8.38937 6.61832 8.88617 6.6963 9.37072C6.77427 9.85527 7.00304 10.3029 7.35008 10.6499C7.69711 10.997 8.14474 11.2257 8.62929 11.3037C9.11385 11.3817 9.61065 11.3049 10.049 11.0842C10.4874 10.8636 10.8451 10.5103 11.0711 10.0747C11.2971 9.63905 11.3801 9.14324 11.3081 8.65776C11.2346 8.16256 11.0039 7.7041 10.6499 7.35011C10.2959 6.99612 9.83746 6.76536 9.34225 6.69193ZM7.00419 5.15366C7.81322 4.73387 8.73402 4.57987 9.63562 4.71356C10.5553 4.84994 11.4067 5.27848 12.0641 5.93589C12.7215 6.59331 13.1501 7.44473 13.2864 8.36439C13.4201 9.26599 13.2661 10.1868 12.8464 10.9958C12.4266 11.8049 11.7624 12.4609 10.9482 12.8707C10.1341 13.2805 9.21144 13.4231 8.31156 13.2783C7.41167 13.1335 6.58036 12.7086 5.93586 12.0641C5.29137 11.4197 4.8665 10.5883 4.7217 9.68846C4.57689 8.78857 4.71953 7.86595 5.12931 7.0518C5.53909 6.23765 6.19516 5.57345 7.00419 5.15366Z" fill="white"/>
</svg>
