<svg width="16" height="16" viewBox="0 0 16 16" fill="none" xmlns="http://www.w3.org/2000/svg">
<path d="M11.3333 4.86958C12.571 4.86958 13.758 5.41081 14.6332 6.37421C15.5083 7.33761 16 8.64425 16 10.0067V16H12.8889V10.0067C12.8889 9.55255 12.725 9.117 12.4333 8.79587C12.1415 8.47474 11.7459 8.29433 11.3333 8.29433C10.9208 8.29433 10.5251 8.47474 10.2334 8.79587C9.94166 9.117 9.77777 9.55255 9.77777 10.0067V16H6.66666V10.0067C6.66666 8.64425 7.15832 7.33761 8.03349 6.37421C8.90866 5.41081 10.0956 4.86958 11.3333 4.86958Z" fill="white"/>
<path d="M3.33333 5.56519H0V16H3.33333V5.56519Z" fill="white"/>
<path d="M1.66667 3.47826C2.58714 3.47826 3.33333 2.69962 3.33333 1.73913C3.33333 0.778634 2.58714 0 1.66667 0C0.746192 0 0 0.778634 0 1.73913C0 2.69962 0.746192 3.47826 1.66667 3.47826Z" fill="white"/>
</svg>
