<svg width="16" height="16" viewBox="0 0 16 16" fill="none" xmlns="http://www.w3.org/2000/svg">
<path d="M16 0.00896646C15.3036 0.611275 14.5324 1.07195 13.7164 1.37324C13.2784 0.755757 12.6962 0.318104 12.0488 0.119469C11.4013 -0.0791667 10.7196 -0.0292013 10.0961 0.262607C9.47248 0.554416 8.93705 1.07399 8.56217 1.75105C8.18729 2.42812 7.99105 3.23001 8 4.04827V4.93995C6.72192 4.98058 5.45547 4.63305 4.31346 3.92829C3.17145 3.22354 2.18932 2.18345 1.45455 0.900645C1.45455 0.900645 -1.45455 8.92575 5.09091 12.4925C3.59311 13.739 1.80884 14.364 0 14.2758C6.54545 18.7342 14.5455 14.2758 14.5455 4.02152C14.5448 3.77315 14.5253 3.52539 14.4873 3.28143C15.2295 2.38395 15.7533 1.25082 16 0.00896646Z" fill="white"/>
</svg>
