<svg width="129" height="33" viewBox="0 0 129 33" fill="none" xmlns="http://www.w3.org/2000/svg">
<path d="M55.0401 1.53396C52.8534 2.8673 51.7334 5.4273 51.7334 9.21397C51.7334 15.294 54.5067 18.5473 59.2001 17.9073C63.4134 17.374 65.4401 13.8006 64.9067 7.77397C64.5867 4.09397 63.4667 2.2273 61.0667 1.21396C58.5601 0.20063 57.1201 0.253963 55.0401 1.53396ZM59.8934 3.93397C61.6001 5.5873 61.6534 13.4806 60.0001 14.8673C58.8801 15.8273 56.9067 15.294 56.1067 13.8006C55.2001 12.094 55.4667 5.21397 56.4801 3.9873C57.3867 2.92063 58.8801 2.8673 59.8934 3.93397Z" fill="white"/>
<path d="M1.06689 9.21375C1.06689 16.5738 1.17356 17.4271 2.0269 17.6404C3.84023 18.1204 4.2669 17.5338 4.2669 14.3338V11.1871L6.8269 11.0271C8.96023 10.8671 9.33357 10.7071 9.49357 9.64041C9.65357 8.57375 9.49357 8.46708 6.9869 8.46708H4.2669V5.80041V3.13374H7.4669C10.2936 3.13374 10.6669 3.02708 10.6669 2.06707C10.6669 1.05374 10.2936 1.00041 5.8669 1.00041H1.06689V9.21375Z" fill="white"/>
<path d="M43.7333 2.81404C43.7333 3.24071 43.36 3.66737 42.9333 3.88071C42.5066 4.04071 42.1333 4.68071 42.1333 5.26737C42.1333 5.85404 42.5066 6.33404 42.9333 6.33404C43.5733 6.33404 43.7333 7.24071 43.7333 11.3474C43.7333 15.9874 43.84 16.4674 44.9066 17.214C45.5466 17.694 46.7733 18.0674 47.5733 18.0674C48.8 18.0674 49.0666 17.854 49.0666 16.734C49.0666 15.934 48.7466 15.4007 48.2666 15.4007C46.9866 15.4007 46.3466 13.4274 46.5066 9.90738C46.6666 6.92071 46.7733 6.60071 47.8933 6.44071C49.4933 6.17404 49.3333 3.93404 47.7333 3.93404C47.04 3.93404 46.6666 3.61404 46.72 2.97404C46.7733 2.33404 46.4 2.06737 45.28 2.06737C44.32 2.06737 43.7333 2.33404 43.7333 2.81404Z" fill="white"/>
<path d="M81.6 2.81385C81.6 3.24052 81.2267 3.66718 80.8 3.88052C80.3733 4.04052 80 4.68052 80 5.26719C80 5.85385 80.3733 6.33385 80.8 6.33385C81.44 6.33385 81.6 7.24052 81.6 11.1339C81.6 15.2939 81.76 16.0939 82.72 17.0539C84.2133 18.5472 87.1467 18.2805 87.36 16.6805C87.4667 15.8272 87.1467 15.4539 86.1867 15.1872C84.8533 14.8672 84.8 14.7072 84.8 10.6005C84.8 6.70719 84.9067 6.33385 85.8667 6.33385C86.6133 6.33385 86.9333 5.96052 86.9333 5.21385C86.9333 4.57385 86.5067 3.98719 85.8667 3.82719C85.28 3.66718 84.8 3.18719 84.8 2.81385C84.8 2.33385 84.2133 2.06718 83.2 2.06718C82.1867 2.06718 81.6 2.33385 81.6 2.81385Z" fill="white"/>
<path d="M22.9336 10.547V17.5337H24.5336H26.1336V13.267C26.1336 9.64035 26.2936 8.84035 27.2536 7.88035C27.8403 7.29368 28.6936 6.92035 29.1203 7.08035C29.6536 7.29368 29.8669 6.92035 29.8669 5.53368C29.8669 4.04035 29.6536 3.66701 28.8003 3.66701C28.2136 3.66701 27.3603 4.30701 26.8269 5.10701L25.9203 6.49368L25.6003 5.21368C25.3869 4.41368 24.8536 3.88035 24.1069 3.77368C22.9336 3.61368 22.9336 3.66701 22.9336 10.547Z" fill="white"/>
<path d="M32.8003 5.00067C31.4136 6.33401 31.0936 8.62734 32.0002 10.0673C32.2669 10.494 33.4936 11.3473 34.7736 11.934C36.5869 12.7873 37.0669 13.3207 37.0669 14.334C37.0669 16.094 35.0936 16.4674 33.9736 14.8673C32.7469 13.1073 30.6669 14.4407 31.8936 16.254C33.0669 18.0674 36.3736 18.5474 38.2936 17.214C41.3336 15.0807 40.8536 11.4007 37.2803 9.74734C35.0403 8.78734 34.0803 7.61401 34.5069 6.44068C34.8269 5.53401 36.5336 5.64068 37.3336 6.60068C37.7069 7.02734 38.2936 7.40068 38.7203 7.40068C40.0536 7.40068 40.0536 6.33401 38.7203 5.00067C36.9603 3.24067 34.5069 3.24067 32.8003 5.00067Z" fill="white"/>
<path d="M68.64 4.04073C68.2134 4.41407 68.16 17.2141 68.5334 17.6407C68.6934 17.8007 69.44 17.8007 70.1334 17.6407C71.4134 17.4274 71.4667 17.2674 71.4667 12.7341C71.4667 7.13407 71.7334 6.33407 73.3867 6.33407C74.6667 6.33407 74.6667 6.3874 74.6667 11.9341V17.5341H76.2667H77.8667V11.5074C77.8667 6.28073 77.7067 5.32073 76.9067 4.57407C75.68 3.45406 73.3867 3.40073 72.48 4.52073C71.8934 5.2674 71.7867 5.2674 71.36 4.52073C70.88 3.6674 69.28 3.3474 68.64 4.04073Z" fill="white"/>
<path d="M91.5201 4.78699C90.7734 5.37365 90.1334 6.22699 90.1334 6.65365C90.1334 7.66699 92.6401 7.61365 93.2268 6.54699C94.0268 5.10699 95.7334 5.85365 95.8934 7.72032C96.0534 9.26699 95.9468 9.42699 93.8668 9.74699C90.9868 10.1737 89.6001 11.667 89.6001 14.227C89.6001 17.8003 92.3734 19.1337 95.1468 16.947C96.2668 16.0403 96.5334 15.987 96.5334 16.6803C96.5334 17.2137 97.0134 17.5337 97.8668 17.5337H99.2001V11.9337C99.2001 6.65365 99.0934 6.22699 97.8668 5.00032C96.2668 3.34698 93.4934 3.24032 91.5201 4.78699ZM96.0001 12.947C96.0001 14.9203 94.8801 16.2537 93.6001 15.7203C92.6401 15.347 92.5334 12.6803 93.4401 11.7737C93.8134 11.4003 94.5068 11.1337 95.0401 11.1337C95.7868 11.1337 96.0001 11.5603 96.0001 12.947Z" fill="white"/>
<path d="M102.72 4.04073C102.347 4.4674 102.294 17.2674 102.667 17.6407C102.827 17.8007 103.574 17.8007 104.267 17.6407C105.547 17.4274 105.6 17.2674 105.6 13.4274C105.6 8.84074 106.187 7.40073 108 7.40073C109.174 7.40073 109.334 7.1874 109.334 5.53407C109.334 4.04073 109.12 3.6674 108.32 3.6674C107.734 3.6674 106.774 4.3074 106.187 5.1074L105.12 6.60073L105.067 5.2674C105.067 4.3074 104.747 3.88073 104.054 3.8274C103.52 3.77407 102.88 3.88073 102.72 4.04073Z" fill="white"/>
<path d="M112 10.547V17.5337H113.6H115.253L115.093 10.707L114.933 3.93368L113.493 3.77368L112 3.61368V10.547Z" fill="white"/>
<path d="M119.733 4.84062C117.387 6.97395 117.013 14.0673 119.147 16.414C121.493 18.974 126.507 18.174 127.787 15.0806C129.333 11.454 128.32 5.48062 125.973 4.25395C124.107 3.29395 121.227 3.56062 119.733 4.84062ZM124.267 6.54729C125.173 7.66729 125.12 14.2806 124.16 15.1873C122.453 16.9473 121.067 14.974 121.067 10.7606C121.067 6.65395 122.613 4.62728 124.267 6.54729Z" fill="white"/>
<path d="M16.9603 8.3073C17.227 14.654 17.4403 15.294 17.4936 9.9073C17.547 7.08064 17.4403 4.73397 17.227 4.73397C16.9603 4.73397 16.8536 6.33397 16.9603 8.3073Z" fill="white"/>
<path d="M15.8932 9.00074C15.3598 10.1207 15.1465 15.9341 15.5732 15.9341C15.7865 15.9341 16.1065 15.4007 16.2665 14.7074C16.6932 13.0541 16.3198 7.98741 15.8932 9.00074Z" fill="white"/>
<path d="M13.4935 16.4141C13.4935 17.0007 13.7602 17.3207 13.9735 17.2141C14.5602 16.8407 14.5068 15.4007 13.9202 15.4007C13.6002 15.4007 13.4402 15.8807 13.4935 16.4141Z" fill="white"/>
<path d="M16.5333 16.2005C16 16.8405 16 17.0005 16.6933 17.0005C17.7067 17.0005 18.3467 16.1472 17.6533 15.7205C17.3867 15.5605 16.9067 15.7738 16.5333 16.2005Z" fill="white"/>
<path d="M1.60006 26.0673C-0.373273 28.0406 0.533394 32.4673 2.88006 32.4673C4.16006 32.4673 5.76006 31.0806 5.12006 30.494C4.96006 30.2806 4.42673 30.6006 4.00006 31.1873C3.20006 32.2006 3.20006 32.2006 2.40006 31.1873C1.06673 29.4806 1.49339 26.0673 2.98673 26.0673C3.4134 26.0673 3.8934 26.4406 4.0534 26.8673C4.42673 27.7206 5.3334 27.9873 5.3334 27.1873C5.3334 26.5473 3.78673 25.0006 3.14673 25.0006C2.88006 25.0006 2.18673 25.4806 1.60006 26.0673Z" fill="white"/>
<path d="M27.3601 25.4273L25.6001 25.5873V29.0539V32.4673H27.8934C29.3868 32.4673 29.8668 32.3073 29.3868 31.9873C28.9601 31.7206 28.1601 31.5606 27.6268 31.6673C26.9334 31.8273 26.6668 31.5606 26.6668 30.5473C26.6668 29.6406 26.9334 29.2673 27.7334 29.2673C28.3201 29.2673 28.8001 29.0006 28.8001 28.7339C28.8001 28.4139 28.3201 28.2006 27.7334 28.2006C27.0401 28.2006 26.6668 27.8273 26.6668 27.1873C26.6668 26.3873 27.0934 26.0673 28.4268 25.9606C29.3334 25.8539 29.9201 25.6939 29.6001 25.5339C29.3334 25.3739 28.2668 25.3206 27.3601 25.4273Z" fill="white"/>
<path d="M110.933 26.0673C108.907 28.0939 110.133 32.4673 112.8 32.4673C114.293 32.4673 115.2 31.0806 115.2 28.7873C115.2 27.1873 113.653 25.0006 112.533 25.0006C112.267 25.0006 111.52 25.4806 110.933 26.0673ZM113.92 27.4539C114.4 29.2139 113.547 31.6673 112.533 31.6673C111.36 31.6673 110.613 29.0539 111.36 27.4006C112.16 25.6406 113.493 25.6939 113.92 27.4539Z" fill="white"/>
<path d="M13.3335 29.0006C13.3335 30.974 13.5468 32.4673 13.8668 32.4673C14.1868 32.4673 14.4002 31.7206 14.4002 30.8673C14.4002 29.9606 14.6668 29.2673 14.9868 29.2673C15.2535 29.2673 15.7868 29.9606 16.0535 30.8673C16.3735 31.7206 16.8535 32.4673 17.1202 32.4673C17.7602 32.4673 17.7068 32.254 17.0135 30.654C16.5335 29.5873 16.5335 29.1073 17.0135 28.5206C17.3868 28.0939 17.5468 27.2406 17.3335 26.6006C17.0668 25.8006 16.5335 25.5339 15.1468 25.5339H13.3335V29.0006ZM16.2668 27.4006C16.2668 27.9873 15.8402 28.5206 15.3602 28.6273C14.6135 28.7873 14.4002 28.4673 14.4002 27.4006C14.4002 26.3339 14.6135 26.0139 15.3602 26.1739C15.8402 26.2806 16.2668 26.8139 16.2668 27.4006Z" fill="white"/>
<path d="M37.3335 29.0006V32.4673H38.8802C41.5468 32.4673 42.8268 29.7473 41.4935 26.8673C41.0135 25.8539 40.4802 25.5339 39.0935 25.5339H37.3335V29.0006ZM40.5335 27.1873C41.3335 28.6806 40.6935 31.2406 39.4135 31.5606C38.5068 31.8273 38.4002 31.5606 38.4002 28.9473C38.4002 25.8539 39.4135 25.0006 40.5335 27.1873Z" fill="white"/>
<path d="M50.1333 29.0006C50.1333 30.974 50.3466 32.4673 50.6666 32.4673C50.9866 32.4673 51.2 30.974 51.2 29.0006C51.2 27.0273 50.9866 25.5339 50.6666 25.5339C50.3466 25.5339 50.1333 27.0273 50.1333 29.0006Z" fill="white"/>
<path d="M58.8266 25.9073C59.5732 26.1206 59.7332 26.7606 59.7332 29.3206C59.7332 31.0806 59.9466 32.4673 60.2666 32.4673C60.5866 32.4673 60.7999 31.0806 60.7999 29.3206C60.7999 26.7606 60.9599 26.1206 61.7599 25.9073C62.2399 25.7473 61.5999 25.6406 60.2666 25.6406C58.9332 25.6406 58.2932 25.7473 58.8266 25.9073Z" fill="white"/>
<path d="M75.7334 27.6139C75.7334 30.7606 76.5334 32.4673 78.0267 32.4673C78.7201 32.4673 79.5201 32.2006 79.8934 31.8273C80.6401 31.0806 80.7467 25.5339 80.0001 25.5339C79.7334 25.5339 79.4667 26.8139 79.4667 28.4139C79.4667 30.0139 79.2001 31.5073 78.9334 31.6673C77.7601 32.3606 76.8001 30.7606 76.8001 28.1473C76.8001 26.7073 76.5867 25.5339 76.2667 25.5339C76.0001 25.5339 75.7334 26.4939 75.7334 27.6139Z" fill="white"/>
<path d="M88 29.0006C88 30.974 88.2133 32.4673 88.5333 32.4673C88.8533 32.4673 89.0667 31.1873 89.12 29.6406V26.8673L90.56 29.6406C91.3067 31.1873 92.16 32.4673 92.3733 32.4673C92.5867 32.4673 92.7467 30.8673 92.6933 28.8406C92.64 25.3206 92.64 25.3206 92.32 27.9339L92 30.6006L90.8267 28.0406C89.0667 24.3073 88 24.6806 88 29.0006Z" fill="white"/>
<path d="M100.8 28.6803C100.8 30.4403 101.067 32.0403 101.334 32.2003C101.654 32.4136 101.867 31.2403 101.867 29.0536C101.867 27.0803 101.654 25.5336 101.334 25.5336C101.014 25.5336 100.8 26.9203 100.8 28.6803Z" fill="white"/>
<path d="M123.307 29.1072L123.36 32.7339L123.734 29.8006L124.054 26.8672L125.334 29.6406C126.027 31.1872 126.827 32.4672 127.04 32.4672C127.254 32.4672 127.414 30.8672 127.36 28.8406C127.307 25.5872 127.254 25.4805 126.987 27.6672L126.667 30.0672L125.44 27.7739C124.8 26.5472 124 25.5339 123.734 25.5339C123.414 25.5339 123.254 27.0805 123.307 29.1072Z" fill="white"/>
</svg>
