<svg width="102" height="63" viewBox="0 0 102 63" fill="none" xmlns="http://www.w3.org/2000/svg">
<path d="M36.6001 2.13375V4.26709H51.5334H66.4668V2.13375V0.000420094H51.5334H36.6001V2.13375Z" fill="white"/>
<path d="M36.9734 8.37397C36.7601 8.53397 36.6001 13.334 36.6001 19.0406V29.334H38.8934H41.1334L41.0268 18.8273L40.9734 8.2673L39.1601 8.16063C38.1468 8.05397 37.1334 8.16063 36.9734 8.37397Z" fill="white"/>
<path d="M45.1333 10.667V12.8003H55.8H66.4667V10.667V8.53362H55.8H45.1333V10.667Z" fill="white"/>
<path d="M45.1333 23.2005V29.8672H55.8H66.4667V27.4672V25.0672H58.2H49.9333V23.2005V21.3338H58.2H66.4667V18.9338V16.5338H55.8H45.1333V23.2005Z" fill="white"/>
<path d="M0.866699 46.1339V51.7339H2.20003C3.4267 51.7339 3.53337 51.5206 3.53337 49.6006V47.4672H5.6667C7.4267 47.4672 7.80004 47.3072 7.80004 46.4005C7.80004 45.4939 7.4267 45.3339 5.6667 45.3339C3.9067 45.3339 3.53337 45.1739 3.53337 44.2672C3.53337 43.3605 3.9067 43.2005 5.6667 43.2005C7.5867 43.2005 7.80004 43.0405 7.80004 41.8672C7.80004 40.5872 7.69337 40.5339 4.33337 40.5339H0.866699V46.1339Z" fill="white"/>
<path d="M10.8401 40.9072C10.6268 41.0672 10.4668 43.6272 10.4668 46.5072C10.4668 51.7339 10.4668 51.7339 11.8001 51.7339H13.1335V46.1339C13.1335 41.0672 13.0268 40.5339 12.1735 40.5339C11.6401 40.5339 11.0001 40.6939 10.8401 40.9072Z" fill="white"/>
<path d="M16.3335 46.0805V51.7339H17.6668C18.7868 51.7339 19.0002 51.4672 19.0002 50.1339C19.0002 49.1206 19.2668 48.5339 19.7468 48.5339C20.1735 48.5339 21.0268 49.2272 21.6668 50.1339C22.4135 51.1472 23.2668 51.7339 24.1202 51.7339C25.6668 51.7339 25.7202 51.4672 24.3335 49.7606C23.3735 48.5339 23.3735 48.3206 24.0668 47.3072C25.0802 45.8672 25.0802 43.2005 24.1202 41.8672C23.5868 41.1205 22.5202 40.8005 19.8535 40.6405L16.3335 40.4272V46.0805ZM22.0935 44.6405C21.9868 45.8139 21.6135 46.1872 20.4935 46.2939C19.1602 46.4539 19.0002 46.2939 19.0002 44.8539C19.0002 43.3605 19.1602 43.2005 20.6535 43.2005C22.0935 43.2005 22.2535 43.3605 22.0935 44.6405Z" fill="white"/>
<path d="M28.9202 41.3872C27.9069 42.3472 27.8002 45.4939 28.7602 46.2939C29.0802 46.5605 30.2002 46.9872 31.1602 47.2005C32.6002 47.4672 32.9202 47.7872 32.7602 48.6939C32.6002 49.7072 32.2802 49.8672 30.3602 49.7072C28.3869 49.6005 28.0669 49.7072 28.0669 50.6139C28.0669 51.4139 28.5469 51.7339 30.1469 52.0005C34.0936 52.6405 36.1736 50.6672 35.3202 47.1472C35.0536 46.2405 34.4136 45.7605 32.8669 45.3339C31.2669 44.9072 30.7336 44.4805 30.7336 43.6805C30.7336 42.7205 31.0002 42.5605 32.8136 42.7739C34.4669 42.9339 35.0002 42.7739 35.1602 42.0272C35.5336 40.7472 35.1602 40.5339 32.2802 40.5339C30.6802 40.5339 29.4536 40.8539 28.9202 41.3872Z" fill="white"/>
<path d="M37.6665 41.8672C37.6665 42.9339 37.9332 43.2005 38.9998 43.2005C40.3332 43.2005 40.3332 43.2539 40.3332 47.4672C40.3332 51.6806 40.3332 51.7339 41.6665 51.7339C42.9998 51.7339 42.9998 51.6806 42.9998 47.5206C42.9998 43.3072 42.9998 43.2539 44.4932 43.0939C45.5065 42.9872 45.9332 42.6139 45.9332 41.8672C45.9332 40.9072 45.5065 40.8005 41.8265 40.6405C37.6665 40.4805 37.6665 40.4805 37.6665 41.8672Z" fill="white"/>
<path d="M53.7734 41.387C52.7601 42.0803 52.6001 42.667 52.6001 46.027C52.6001 48.1604 52.8134 50.1337 53.0268 50.507C53.6668 51.5737 56.3868 52.3204 58.2001 51.947C59.5868 51.6804 59.9068 51.4137 59.6934 50.6137C59.4801 49.8137 58.9468 49.6004 57.2934 49.6004H55.2134L55.3734 46.2403L55.5334 42.9337L57.5601 43.0403C59.3201 43.147 59.5334 43.0403 59.5334 41.867C59.5334 40.6403 59.3201 40.5337 57.2401 40.5337C56.0134 40.5337 54.4134 40.907 53.7734 41.387Z" fill="white"/>
<path d="M62.7334 46.1339V51.7339H66.2534C69.2934 51.7339 69.7201 51.6272 69.5601 50.7739C69.4534 50.1339 68.7601 49.8139 67.1067 49.7072L64.8667 49.5472V45.0139C64.8667 40.9072 64.7601 40.5339 63.8001 40.5339C62.7867 40.5339 62.7334 40.9072 62.7334 46.1339Z" fill="white"/>
<path d="M74.787 41.1739C74.0403 43.3072 71.8003 51.1472 71.8003 51.4139C71.8003 51.5739 72.387 51.7339 73.0803 51.7339C73.8803 51.7339 74.467 51.3606 74.627 50.6672C74.8403 49.8672 75.3736 49.6006 76.8136 49.6006C78.3603 49.6006 78.7336 49.8139 78.7336 50.6672C78.7336 51.4672 79.107 51.7339 80.067 51.7339C81.667 51.7339 81.667 51.5739 79.8536 45.6005C78.467 40.9605 78.3603 40.8005 76.707 40.6405C75.6403 40.5339 74.8936 40.7472 74.787 41.1739ZM77.1336 44.3739C77.1336 44.7472 77.2936 45.6005 77.4536 46.2405C77.7203 47.2539 77.5603 47.4672 76.6003 47.4672C75.6403 47.4672 75.4803 47.2539 75.747 46.2405C75.907 45.6005 76.067 44.7472 76.067 44.3739C76.067 44.0539 76.3336 43.7339 76.6003 43.7339C76.9203 43.7339 77.1336 44.0539 77.1336 44.3739Z" fill="white"/>
<path d="M85.0269 41.1203C84.3869 41.4937 84.0669 42.2937 84.0669 43.6803C84.0669 45.9203 84.6536 46.667 86.8936 47.2003C90.0936 48.0003 89.1336 50.2937 85.8269 49.7603C84.7069 49.547 84.0669 49.6537 84.0669 50.0803C84.0669 50.4003 84.0136 50.827 83.9603 51.0403C83.6936 51.6803 86.9469 52.267 88.7603 51.947C90.8403 51.5737 91.8536 49.867 91.3203 47.7337C91.0536 46.7203 90.3069 46.0803 88.5469 45.3337C85.5603 44.0003 85.6669 42.9337 88.8136 42.987C90.7869 43.0403 91.0536 42.8803 90.8936 41.9203C90.7869 41.0137 90.3069 40.8003 88.3336 40.6937C87.0003 40.587 85.5069 40.8003 85.0269 41.1203Z" fill="white"/>
<path d="M95.1603 41.1204C94.5203 41.4937 94.2003 42.2937 94.2003 43.6804C94.2003 45.9204 94.787 46.667 97.027 47.2004C100.067 48.0004 99.267 50.347 96.1737 49.7604C95.1603 49.547 94.467 49.707 94.2003 50.187C93.507 51.2004 93.987 51.5737 96.227 52.0004C98.8937 52.427 101.027 51.5737 101.454 49.9204C101.987 47.7337 101.187 46.4004 98.627 45.2804C95.6937 44.0004 95.8537 42.9337 98.947 42.987C100.92 43.0404 101.187 42.8804 101.027 41.9204C100.92 41.0137 100.44 40.8004 98.467 40.6937C97.1337 40.587 95.6403 40.8004 95.1603 41.1204Z" fill="white"/>
<path d="M22.7334 60.0004C22.7334 61.3337 23.0001 62.4004 23.2667 62.4004C23.5867 62.4004 23.8001 61.9204 23.8001 61.3871C23.8001 60.7471 24.2267 60.2671 25.0267 60.1071L26.2001 59.8937L25.0267 59.7871C23.5334 59.7337 23.3734 58.6671 24.8667 58.6671C25.4534 58.6671 25.9334 58.4004 25.9334 58.1337C25.9334 57.8137 25.2401 57.6004 24.3334 57.6004C22.7867 57.6004 22.7334 57.7071 22.7334 60.0004Z" fill="white"/>
<path d="M29.6665 60.0004C29.6665 62.1871 29.7732 62.4004 30.9998 62.4004C31.7465 62.4004 32.3332 62.1337 32.3332 61.8671C32.3332 61.5471 31.9598 61.3337 31.5332 61.3337C30.9998 61.3337 30.7332 60.7471 30.7332 59.4671C30.7332 58.4537 30.5198 57.6004 30.1998 57.6004C29.9332 57.6004 29.6665 58.6671 29.6665 60.0004Z" fill="white"/>
<path d="M36.0665 58.4538C34.9465 59.7872 36.0132 62.0805 37.8265 62.2938C38.6799 62.4005 39.6932 62.1872 40.1199 61.8138C41.0265 61.0672 41.0799 59.0938 40.2265 58.2405C39.3199 57.3338 36.8665 57.4405 36.0665 58.4538ZM39.5332 60.0005C39.5332 61.1738 37.8799 61.7605 37.0265 60.9072C36.1199 60.0005 36.9732 58.5605 38.3065 58.7738C39.1065 58.8805 39.5332 59.3072 39.5332 60.0005Z" fill="white"/>
<path d="M44.7069 58.2404C44.3336 58.6137 44.0669 59.3604 44.0669 60.0004C44.0669 61.4937 45.0802 62.4004 46.7336 62.4004C48.3869 62.4004 49.4002 61.4937 49.4002 60.0004C49.4002 58.5071 48.3869 57.6004 46.7336 57.6004C45.9869 57.6004 45.0802 57.8671 44.7069 58.2404ZM48.0669 60.0004C48.0669 61.1737 46.4136 61.7604 45.5602 60.9071C44.6536 60.0004 45.5069 58.5604 46.8402 58.7737C47.6402 58.8804 48.0669 59.3071 48.0669 60.0004Z" fill="white"/>
<path d="M52.6001 59.9471C52.6001 61.2804 52.8668 62.4004 53.1334 62.4004C53.4534 62.4004 53.6668 62.0271 53.6668 61.6004C53.6668 61.1737 53.9334 60.8004 54.2001 60.8004C54.5201 60.8004 54.8934 61.1737 55.0534 61.6004C55.6401 63.0937 56.1734 62.4004 56.1201 60.1071C56.0668 57.9737 55.9601 57.8671 54.3601 57.7071C52.6001 57.5471 52.6001 57.5471 52.6001 59.9471Z" fill="white"/>
<path d="M60.0669 60.0004C60.0669 61.3337 60.3336 62.4004 60.6002 62.4004C60.9202 62.4004 61.1336 61.3337 61.1336 60.0004C61.1336 58.6671 60.9202 57.6004 60.6002 57.6004C60.3336 57.6004 60.0669 58.6671 60.0669 60.0004Z" fill="white"/>
<path d="M64.8667 60.0005C64.8667 61.3339 65.1334 62.4005 65.4 62.4005C65.72 62.4005 65.9334 61.7605 65.9334 60.9072L65.9867 59.4672L67.0534 60.9072C68.76 63.2005 69.6667 62.8272 69.6667 60.0005C69.6667 58.6672 69.4534 57.6005 69.1334 57.6005C68.8667 57.6005 68.6 58.1872 68.6 58.9339C68.6 59.6805 68.3867 60.2672 68.1734 60.2672C67.9067 60.2672 67.4267 59.6805 67.1067 58.9339C66.04 56.6939 64.8667 57.2272 64.8667 60.0005Z" fill="white"/>
<path d="M73.3467 58.7204C72.3334 60.6404 73.5067 62.4004 75.8001 62.4004C77.4534 62.4004 77.6667 62.2404 77.6667 61.0671C77.6667 60.0537 77.4001 59.7337 76.5467 59.7337C75.5334 59.7337 75.4801 59.8404 76.1201 60.5871C76.7067 61.3337 76.6534 61.3871 75.5334 61.2271C73.5601 60.9604 73.7201 58.9871 75.6934 58.7737C77.6134 58.5604 77.5601 57.6004 75.5334 57.6004C74.4667 57.6004 73.7734 57.9737 73.3467 58.7204Z" fill="white"/>
</svg>
