<svg width="1440" height="417" viewBox="0 0 1440 417" fill="none" xmlns="http://www.w3.org/2000/svg">
<path d="M1225.55 0.345833C1182.14 2.39898 1162.68 4.30003 1147.25 8.02611C1137.82 10.2313 1123.38 14.7178 1123.83 15.2501C1123.99 15.3262 1127.86 14.2616 1132.42 12.8168C1149.45 7.41777 1165.04 5.1365 1199.32 3.00732C1257.32 -0.642715 1287.58 1.1823 1323.92 10.3074C1363.45 20.2689 1403.28 39.9639 1434.07 64.7537C1438.71 68.5558 1439.92 69.2402 1439.92 68.0235C1439.92 67.035 1436.65 64.1454 1429.89 59.0505C1386.94 26.8086 1336.84 7.26569 1282.56 1.56251C1268.8 0.117706 1242.8 -0.414589 1225.55 0.345833Z" fill="#101010"/>
<path d="M1246.83 15.5543C1227.3 16.6189 1169.6 20.8773 1158.65 22.0179C1121.17 26.1242 1089.25 35.6295 1057.01 52.4348C1028.13 67.4912 1009.88 82.2434 993.613 103.687C990.116 108.25 987.151 111.976 987.075 111.824C986.543 111.368 991.56 97.9842 993.385 94.7144C998.326 86.2737 1009.65 74.183 1017.48 69.2402C1019.69 67.7954 1026.76 64.0693 1033.22 60.7995C1039.68 57.5297 1052 51.1421 1060.59 46.5035C1069.18 41.865 1082.71 34.717 1090.61 30.6107C1098.6 26.5804 1104.83 23.1585 1104.45 23.1585C1103.61 23.1585 1085.9 32.1315 1066.29 42.5493C1056.71 47.6442 1041.89 55.3244 1033.45 59.6588C1015.81 68.6318 1008.82 73.7267 1000.45 83.6882C997.49 87.1862 994.905 90.0758 994.677 90.0758C994.449 90.0758 995.057 88.7831 995.969 87.1862C998.934 82.2434 1002.2 75.9319 1000.99 77.5288C997.87 81.6351 997.566 81.7111 999.618 77.833C1000.91 75.4756 1003.65 70.9131 1005.78 67.6433C1011.02 59.6588 1010.72 58.5943 1005.4 66.1225C1003.12 69.4683 1000.83 72.1298 1000.53 72.0537C1000.15 71.9017 1000.07 72.434 1000.3 73.1183C1000.68 74.0309 1000.53 74.183 999.77 73.7267C999.162 73.3465 998.934 73.4225 999.238 73.8788C999.466 74.259 999.01 75.5517 998.174 76.8444C996.198 79.658 991.408 89.0872 991.408 89.9998C991.408 90.38 986.391 100.418 980.309 112.28C971.415 129.466 968.374 134.637 965.258 137.83C957.58 145.891 954.691 147.184 938.119 149.845C931.733 150.834 928.16 150.986 919.57 150.453C901.705 149.389 899.805 149.617 875.478 155.016C857.234 159.046 840.129 165.358 823.481 174.179C790.793 191.516 778.629 207.181 758.408 258.129C754.303 268.395 750.73 277.064 750.35 277.52C749.97 277.9 749.666 278.813 749.666 279.497C749.666 280.258 749.21 281.322 748.754 281.855C748.222 282.387 747.689 283.375 747.537 283.984C747.385 284.592 746.777 286.265 746.169 287.634L745.029 290.067L738.795 285.353C726.632 275.923 709.984 258.586 696.224 240.944C693.868 237.978 684.517 225.279 675.319 212.732C657.15 187.866 653.121 182.619 643.162 171.061C608.878 131.367 553.535 98.0602 505.795 88.5549C489.071 85.2851 479.112 84.5247 458.587 84.981C418.677 85.8935 378.614 96.0071 341.441 114.485C329.658 120.341 305.864 134.408 303.811 136.69C303.431 137.146 304.115 136.842 305.331 136.081C335.663 117.147 351.171 109.467 375.65 101.102C431.068 82.3195 482.077 80.7226 528.069 96.3873C555.968 105.969 584.703 122.014 609.638 142.013C628.491 157.145 643.771 173.798 663.764 201.022C687.862 233.796 698.961 248.396 705.727 256.228C715.001 267.026 728.837 280.258 737.503 286.721C743.964 291.512 745.409 293.109 743.508 293.109C742.292 293.109 734.234 287.406 727.012 281.398C713.253 269.916 697.516 252.122 679.348 227.408C648.18 185.205 643.01 178.741 628.415 164.141C609.486 145.13 586.832 129.314 558.629 115.474C509.52 91.3685 461.628 87.9466 398.836 103.839C374.357 110.075 350.563 119.048 329.734 129.846C323.804 132.888 309.969 140.872 298.87 147.488C266.79 166.65 249.533 174.939 232.657 179.35C198.144 188.246 164.467 179.578 127.446 152.05C110.265 139.275 95.3654 125.131 64.4254 91.9768C31.4329 56.6172 23.1467 48.4046 7.71476 35.8576L5.05408 33.7284L7.71476 35.4013C16.381 41.0285 30.1405 53.8036 64.3494 88.0987C85.2547 109.086 106.084 129.466 110.645 133.344C138.468 157.145 160.97 169.54 186.361 175.015C195.483 176.992 216.845 176.916 225.891 174.939C232.885 173.418 246.72 169.236 246.264 168.78C246.112 168.628 242.843 169.464 238.966 170.757C227.715 174.331 218.365 175.471 204.606 175.015C187.729 174.407 176.402 171.593 160.59 164.141C131.095 150.149 111.938 134.104 55.9112 76.3882C36.5262 56.313 25.9595 46.2754 17.8254 39.9639C14.3285 37.3024 11.7438 34.869 11.8958 34.5649C12.1239 34.2607 11.6678 34.0326 10.9076 34.1086C10.2234 34.1086 9.69127 33.8045 9.76729 33.3482C9.84331 32.8159 9.38719 32.5117 8.627 32.5878C7.71476 32.6638 7.33466 32.1315 7.41068 30.9909C7.4867 30.0023 7.18263 29.47 6.87855 29.6982C6.49845 29.9263 6.34641 30.4586 6.57447 30.8388C6.87855 31.219 6.65049 31.5232 6.19437 31.5232C5.73825 31.5232 5.20612 30.9909 4.97806 30.3826C4.67398 29.7742 4.21786 29.47 3.83776 29.6982C3.45767 29.9263 3.15359 29.6982 3.15359 29.2419C3.15359 28.7857 2.84951 28.6336 2.39339 28.8617C2.01329 29.0898 1.6332 28.9377 1.6332 28.4815C1.6332 28.0252 1.32912 27.8732 0.872999 28.1013C0.492901 28.3294 0.112803 29.8503 0.188823 31.3711C0.188823 33.9565 0.64494 34.4888 5.96631 38.367C14.1764 44.3744 30.4446 59.5828 44.5082 74.4871C51.274 81.6351 64.8815 96.0831 74.8401 106.577C120.072 154.408 148.807 174.483 183.396 182.239C194.419 184.672 214.26 184.672 225.435 182.239C244.364 178.057 261.848 170.453 288.607 154.712C297.425 149.541 308.372 143.077 312.933 140.416C344.254 122.09 379.527 108.63 415.18 101.482C435.781 97.3759 443.383 96.6154 466.113 96.6154C488.311 96.5394 495.456 97.2238 512.485 101.102C550.267 109.543 593.218 133.42 623.397 162.62C637.537 176.384 644.303 184.825 680.792 233.796C701.241 261.247 718.726 279.497 736.439 291.816C742.824 296.227 743.888 297.976 738.339 294.934C731.421 291.208 718.27 280.714 709.452 271.893C697.44 259.878 688.622 249.156 666.272 219.272C644.151 189.767 637.689 181.935 625.754 169.92C604.24 148.4 574.669 129.314 543.045 116.767C519.403 107.337 498.725 103.459 472.575 103.459C454.634 103.535 442.319 104.904 421.261 109.086C375.878 118.211 343.417 130.682 296.893 156.765C274.011 169.692 262.608 175.395 250.977 180.034C233.569 186.954 220.874 189.691 205.594 189.691C184.612 189.691 166.824 184.749 146.831 173.266C120.984 158.438 99.3184 138.743 59.4081 93.8779C37.5905 69.3923 16.0009 47.1879 7.56272 40.4962C0.568921 34.9451 0.112803 34.717 0.112803 36.618C0.112803 37.3784 1.78523 39.2035 3.76174 40.6483C10.4515 45.591 37.0583 72.8902 57.9637 96.1592C105.172 148.78 130.41 170.3 158.994 182.391C184.612 193.265 208.178 194.786 234.557 187.41C250.521 182.923 265.725 176.004 292.408 161.175C332.47 138.819 351.855 130.15 383.328 120.569C417.384 110.227 443.155 105.893 471.434 105.893C505.415 105.817 531.49 112.28 564.178 128.857C593.978 143.99 617.088 162.468 639.209 188.931C643.619 194.178 655.174 209.082 664.98 222.161C674.711 235.165 685.353 249.004 688.546 252.958C704.206 271.893 718.65 285.505 732.866 294.782C742.14 300.789 741.836 301.702 732.486 296.227C722.755 290.447 715.229 284.592 704.89 274.478C693.031 262.996 683.453 251.438 665.056 226.952C643.086 197.524 637.157 190.452 623.093 176.308C609.258 162.392 599.527 154.636 584.779 145.739C526.548 110.455 480.557 104.296 409.478 122.09C366.147 132.964 338.552 143.914 291.268 168.78C262.913 183.684 244.44 191.288 227.259 195.166C216.693 197.524 192.67 197.752 182.56 195.47C166.672 192.049 151.392 185.281 135.96 175.015C112.394 159.274 91.7164 139.275 57.1275 98.8206C41.3914 80.4184 30.6727 68.2516 22.9947 60.0391C16.229 52.815 1.6332 39.1274 0.72096 39.1274C-1.40759 39.1274 1.17708 42.5493 8.47496 49.5452C18.2815 58.8984 31.2808 73.1183 49.5255 94.2581C80.7696 130.454 102.511 153.039 118.247 165.662C139.533 182.771 160.286 193.265 181.8 197.828C191.606 199.881 212.055 199.729 223.306 197.448C241.399 193.798 256.603 187.942 283.666 174.027C330.19 150.225 343.341 144.446 374.129 134.18C402.637 124.675 424.378 119.352 447.488 116.234C461.4 114.333 489.755 114.333 501.842 116.158C524.344 119.732 542.437 125.816 565.927 137.754C587.288 148.704 603.784 160.719 620.433 177.448C632.9 189.995 640.046 198.664 662.624 228.473C686.722 260.335 700.025 275.467 713.937 286.721C720.17 291.816 730.889 299.04 735.45 301.169C736.971 301.93 738.263 302.766 738.263 303.146C738.263 304.059 728.076 298.812 720.779 294.021C711.96 288.318 704.434 281.931 694.552 271.741C684.213 261.019 676.079 251.133 657.302 226.192C637.993 200.641 632.14 193.645 619.368 180.946C602.188 163.837 588.656 154.484 563.038 141.785C524.8 122.85 491.503 117.299 451.061 123.154C426.431 126.804 381.959 139.199 349.423 151.67C331.71 158.438 324.716 161.556 297.349 174.863C267.778 189.235 258.807 193.189 245.276 197.752C222.318 205.432 205.366 207.105 184.46 203.683C156.561 199.197 127.37 181.707 96.9618 151.366C83.0502 137.45 75.6763 128.933 48.7653 96.5394C25.5794 68.4798 13.0361 54.2599 5.51019 47.416L0.492901 42.7775L0.264842 49.0129C0.0367837 54.64 0.188823 55.4765 1.78523 57.3015L3.53368 59.2787L1.78523 57.8338L0.112803 56.389V85.4372L0.188823 114.485L9.0071 132.127C39.567 193.417 63.5131 228.929 95.2893 260.563C108.289 273.414 125.925 286.037 141.889 293.869C174.426 309.838 208.026 313.032 249.229 304.135C275.836 298.356 312.933 284.516 339.16 270.448C357.253 260.791 367.135 254.403 389.713 237.674C431.144 206.953 447.184 199.349 474.475 197.6C497.965 196.155 528.981 204.063 551.635 217.447C571.476 229.157 584.475 241.78 613.211 277.52C635.257 304.819 651.981 320.18 667.793 327.328C674.711 330.446 684.897 333.335 692.271 334.172L698.353 334.856L691.511 334.476C687.71 334.324 681.704 333.487 678.208 332.651C669.769 330.598 656.77 324.21 648.56 317.975C638.981 310.675 624.234 295.086 607.205 274.174C590.329 253.491 578.47 240.792 568.739 233.035C545.781 214.785 520.011 204.139 490.819 201.022C465.885 198.36 441.635 204.748 418.221 220.108C409.554 225.811 403.397 230.45 384.772 245.278C365.311 260.639 354.288 268.623 342.505 275.619C296.741 302.842 242.083 319.115 203.009 317.138C179.823 315.922 164.011 311.891 143.41 301.854C124.481 292.577 109.961 282.083 93.6169 265.734C71.0391 243.225 51.8821 216.002 28.5441 173.266C22.3865 161.936 15.7728 148.628 1.86125 119.732L0.188823 116.31L0.340862 125.435C0.492901 130.454 0.79698 135.245 1.17708 136.081C1.6332 137.298 1.6332 137.374 0.949019 136.462C0.264842 135.549 0.112803 136.462 0.340862 140.264C0.492901 143.001 0.872999 145.891 1.17708 146.727C1.6332 147.944 1.6332 148.02 0.949019 147.108C0.340862 146.271 0.112803 147.031 0.112803 150.453C0.112803 154.332 0.79698 156.537 5.58621 167.563C25.1993 212.58 50.5898 255.468 73.3957 282.007C81.9099 291.892 97.722 307.709 105.552 314.173C127.446 332.195 153.292 345.198 176.934 350.065C212.36 357.289 249.153 351.814 291.952 332.955C314.758 322.917 335.055 309.99 355.504 292.424C359.685 288.85 372.381 276.836 383.632 265.734C409.554 240.259 421.261 231.362 436.769 225.355C467.861 213.34 514.233 220.488 545.933 242.237C560.073 251.894 570.184 262.084 594.206 290.828C627.426 330.674 646.431 343.753 673.646 345.578L681.628 346.11L673.95 346.186C655.858 346.491 640.882 340.711 624.69 327.252C616.328 320.256 609.03 312.348 591.165 290.828C575.125 271.513 558.325 254.479 548.214 247.331C515.678 224.214 469.686 216.23 436.617 227.788C420.577 233.492 409.022 241.476 390.854 259.65C383.556 267.026 370.404 280.41 361.586 289.459C352.464 298.812 342.049 308.698 337.26 312.424C304.495 338.354 268.082 354.931 231.592 360.558C220.037 362.307 196.395 362.307 185.981 360.558C122.732 349.684 72.5595 304.287 27.7839 217.447C19.7259 201.706 10.3754 181.631 4.21786 166.726C2.31737 162.012 0.568921 157.982 0.492901 157.906C0.340862 157.753 0.188823 165.206 0.188823 174.483V191.44L5.89029 204.824C18.5095 234.328 33.7895 262.844 49.9056 287.025C61.0045 303.603 66.934 311.131 80.5415 326.035C111.634 359.95 144.398 379.265 182.56 386.033C186.133 386.641 194.191 387.021 204.225 387.021C217.453 386.945 221.862 386.641 230.072 385.196C263.141 379.341 298.11 363.22 323.576 342.156C330.874 336.073 344.634 322.537 353.908 312.119C358.241 307.329 358.241 307.329 355.124 311.359C342.505 328.012 322.892 348.696 311.033 357.897C288.303 375.463 258.275 388.998 230.224 394.321C218.137 396.602 195.255 397.135 183.396 395.462C112.85 385.044 51.274 319.724 5.66223 206.801L0.188823 193.113L0.112803 197.752C0.112803 201.706 0.79698 203.987 4.59796 213.34C21.3983 254.403 42.7598 292.424 64.1973 319.724C70.4309 327.632 84.5706 343.221 92.1725 350.521C114.826 372.193 142.574 388.39 168.496 394.93C202.781 403.522 238.966 398.96 276.672 381.242C297.121 371.661 313.314 360.178 330.494 342.917L342.809 330.674L336.956 338.278C333.763 342.46 326.921 350.293 321.752 355.692C306.32 371.585 293.396 381.014 273.403 390.823C226.043 414.092 178.835 414.472 136.188 391.736C106.084 375.767 77.7288 348.696 53.4025 312.88C35.614 286.645 21.9304 260.106 6.87855 222.77L0.112803 206.04V211.135C0.112803 215.622 0.64494 217.447 4.97806 227.865C20.7141 265.582 39.719 300.181 59.6361 327.328C69.5947 340.863 88.6756 361.623 99.9265 371.052C108.517 378.276 123.569 388.694 132.387 393.409C166.52 411.659 204.453 415.461 242.995 404.359C255.159 400.937 263.673 397.515 276.444 390.899C295.373 381.166 310.045 370.368 325.097 355.159C335.359 344.742 342.961 335.236 360.294 310.979C366.831 301.778 374.965 290.828 378.234 286.645C401.876 256.837 423.542 245.202 455.47 245.202C481.545 245.278 509.748 253.491 528.601 266.646C542.133 275.999 550.039 283.984 572.16 310.218C594.358 336.605 608.27 349.228 622.333 355.92C631.608 360.254 636.701 361.547 647.039 362.079C663.84 362.84 682.161 357.593 700.785 346.643C704.662 344.361 708.083 342.536 708.539 342.536C708.919 342.536 709.376 342.232 709.528 341.928C709.756 341.32 728.685 331.054 729.521 331.054C729.673 331.054 731.497 330.37 733.474 329.457C735.526 328.621 737.579 327.86 738.111 327.86C738.567 327.86 739.023 327.556 739.023 327.176C739.023 326.872 739.251 326.644 739.631 326.72C740.24 326.796 741.076 326.567 747.005 324.286C749.97 323.07 756.888 320.788 759.549 320.104C759.777 320.028 761.297 319.572 762.969 319.115C764.642 318.659 769.583 317.442 773.992 316.53C781.518 314.857 783.495 314.781 809.569 314.857C824.773 314.933 836.784 314.705 836.252 314.325C835.72 314.02 834.656 313.868 833.896 314.02C833.135 314.173 832.527 314.02 832.527 313.64C832.527 313.26 831.843 313.108 831.007 313.26C830.095 313.412 828.65 313.26 827.738 312.956C826.294 312.348 826.446 312.195 829.487 311.435C847.959 306.568 863.315 297.291 879.659 280.942C890.834 269.764 899.805 258.434 912.652 239.119C925.575 219.728 933.405 206.649 944.58 185.661L948.989 177.524L951.346 179.197C960.848 185.813 973.164 197.448 984.186 210.223C998.63 226.952 1012.24 246.647 1040.44 291.968C1068.8 337.442 1083.16 357.973 1098.44 374.93C1119.73 398.58 1141.32 411.735 1165.49 415.993C1175.6 417.742 1194.68 417.134 1202.74 414.777C1219.54 409.986 1231.86 400.176 1241.28 384.055C1246.3 375.615 1249.8 367.022 1257.17 345.654C1269.26 310.294 1274.66 297.9 1283.1 285.353C1302.25 256.913 1325.13 243.529 1354.78 243.453C1365.04 243.453 1372.42 244.594 1381.54 247.559C1395.15 251.97 1404.73 257.977 1414.53 268.167C1424.34 278.357 1430.65 289.839 1435.06 305.352C1436.2 309.306 1437.19 312.652 1437.42 312.804C1437.57 313.032 1438.25 312.652 1438.94 311.967C1439.92 310.903 1440 310.142 1439.32 307.633C1438.94 305.884 1438.86 304.515 1439.24 304.515C1439.54 304.515 1439.85 299.268 1439.85 292.881C1439.85 281.398 1439.85 281.17 1437.34 275.543C1433.77 267.254 1430.12 261.551 1423.66 254.251C1416.97 246.571 1411.64 242.389 1402.37 237.522C1384.43 228.169 1361.85 225.431 1339.58 229.994C1317.99 234.404 1303.7 242.084 1288.64 257.293C1274.58 271.437 1268.88 281.398 1255.88 313.868C1246.76 336.605 1241.59 346.947 1234.75 355.996C1221.75 373.029 1205.63 380.786 1182.98 380.786C1151.96 380.786 1124.67 367.326 1095.78 337.898C1080.5 322.385 1071.61 310.903 1041.58 268.395C1024.32 243.909 1014.82 230.982 1005.62 219.348C1003.19 216.23 1002.43 215.013 1003.95 216.686C1008.51 221.629 1019.76 235.849 1037.02 258.51C1064.08 294.097 1072.22 303.907 1087.19 319.267C1116.23 349.076 1140.33 362.383 1170.66 365.349C1194.84 367.782 1217.49 360.406 1232.77 345.122C1242.12 335.769 1247.97 325.655 1261.96 294.63C1273.97 268.167 1280.21 258.129 1291.69 247.179C1310.31 229.385 1335.02 220.64 1363.07 221.857C1386.63 222.922 1404.73 230.45 1419.47 245.126C1427.46 253.111 1432.47 260.943 1438.18 274.098L1440 278.281L1439.77 272.958C1439.54 268.091 1439.16 266.874 1435.74 260.867C1431.03 252.654 1421.45 241.552 1414.46 236.229C1399.41 224.899 1381.31 219.348 1359.27 219.348C1330.91 219.348 1307.42 228.701 1288.49 247.559L1281.04 254.936L1284.84 249.461C1300.2 227.408 1317.38 215.85 1340.72 212.124C1380.7 205.584 1418.94 224.747 1436.88 260.183L1439.92 266.114V262.084C1439.92 255.392 1434.68 246.799 1423.35 235.165C1415.83 227.408 1409.67 222.846 1400.39 218.207C1371.58 203.683 1334.79 204.9 1310.16 221.097C1292.37 232.807 1280.59 248.016 1263.25 281.55C1248.28 310.446 1240.98 321.168 1229.88 330.446C1214.07 343.753 1190.05 349.076 1165.34 344.894C1154.17 342.917 1144.59 339.799 1132.8 334.096C1105.13 320.788 1082.56 299.801 1042.72 250.525C1026.61 230.526 1017.18 219.272 1009.73 211.059C996.578 196.535 995.285 194.862 1004.71 204.52C1010.03 209.919 1021.13 221.933 1029.27 231.134C1064.01 270.144 1078.45 284.896 1094.03 297.443C1120.11 318.431 1144.06 328.849 1171.27 331.13C1199.32 333.411 1224.03 324.895 1240.75 307.101C1249.27 298.052 1254.59 290.143 1266.75 268.471C1270.55 261.779 1275.49 253.263 1277.77 249.613C1286.52 235.393 1298.76 221.857 1309.09 214.785C1334.18 197.828 1374.24 197.752 1403.28 214.709C1417.35 222.922 1429.59 235.621 1437.34 250.069L1439.92 254.707V250.677C1439.92 247.179 1439.47 245.963 1436.58 241.552C1421.07 217.751 1396.52 203.379 1366.03 200.261C1350.83 198.664 1332.89 201.402 1320.12 207.181C1299.44 216.534 1283.32 234.1 1264.32 268.015C1255.35 283.984 1250.79 291.36 1245.77 298.052C1234.75 312.652 1221.29 322.005 1205.1 326.415C1198.41 328.164 1196.51 328.392 1182.22 328.392C1169.9 328.469 1165.27 328.164 1160.17 327.1C1137.9 322.309 1115.78 311.055 1094.19 293.337C1082.48 283.756 1062.11 263.072 1041.2 239.499C1017.03 212.352 1004.64 199.12 995.513 190.908C985.327 181.631 983.198 179.502 989.128 184.292C999.998 193.037 1015.43 207.865 1036.34 229.69C1067.35 262.008 1082.56 275.619 1101.86 288.622C1149.83 320.864 1203.58 322.917 1237.64 293.945C1246.07 286.797 1254.51 275.391 1272.38 247.103C1291.99 215.85 1309.78 200.869 1333.88 195.318C1338.74 194.178 1343 193.874 1354.78 193.874C1368.47 193.874 1370.29 194.102 1377.97 196.003C1402.22 202.162 1422.21 216.154 1435.44 236.229L1439.92 243.073V239.499C1439.92 235.241 1437.95 232.123 1429.13 222.237C1405.94 196.383 1366.87 185.205 1331.37 194.33C1323.46 196.307 1311.53 202.238 1304.23 207.713C1297.01 213.112 1285.45 224.975 1279.22 233.264C1276.79 236.533 1272.07 243.529 1268.73 248.852C1248.43 280.866 1240.52 290.599 1227.75 299.116C1214.53 308.013 1201.07 311.663 1181.46 311.663C1154.24 311.663 1131.13 303.983 1103.92 285.885C1087.8 275.163 1076.4 264.973 1044.62 233.035C1011.17 199.425 1001.44 190.071 990.268 181.175C980.842 173.57 979.777 172.582 985.935 176.764C998.554 185.433 1013.23 198.132 1045.08 227.865C1052.98 235.241 1062.56 243.909 1066.29 247.103C1106.27 281.474 1141.09 296.835 1178.8 296.911C1205.48 296.911 1226.61 288.774 1243.72 271.817C1250.56 265.049 1256.56 257.521 1268.12 241.02C1287.05 214.101 1296.63 203.911 1311.6 194.938C1330.91 183.304 1360.18 181.251 1385.87 189.691C1405.87 196.231 1424.34 209.842 1435.67 226.344L1439.92 232.579V229.081C1439.92 225.127 1438.02 222.313 1428.67 212.352C1415.6 198.436 1394.77 187.638 1373.79 183.912C1364.21 182.239 1347.56 182.163 1338.29 183.836C1311.75 188.627 1291.08 204.596 1267.28 238.815C1250.56 262.92 1243.79 270.904 1234.06 278.281C1217.57 290.675 1200.46 295.39 1175.45 294.402C1155.76 293.641 1138.51 289.003 1118.36 278.965C1095.25 267.483 1076.63 253.263 1039.3 218.587C1013.76 194.786 999.01 182.163 987.607 174.103C982.21 170.3 981.07 169.236 984.947 171.441C995.057 177.296 1006.31 185.889 1034.74 209.462C1067.81 236.838 1083.32 248.32 1100.34 257.901C1126.57 272.577 1152.8 280.106 1178.04 280.182C1196.21 280.182 1209.58 277.292 1223.65 270.296C1239.38 262.54 1248.28 254.175 1269.49 227.028C1292.22 197.904 1307.73 185.281 1327.64 179.502C1337.3 176.688 1346.04 175.699 1357.44 176.232C1389.45 177.753 1417.65 192.277 1435.97 216.61L1439.92 221.857V218.739C1439.92 216.154 1439.32 214.937 1436.2 211.211C1422.82 195.394 1407.62 185.053 1388.23 178.741C1376.37 174.863 1366.95 173.494 1353.64 173.494C1321.56 173.57 1298.6 186.421 1272.53 219.12C1268.65 224.062 1262.11 232.199 1258.09 237.218C1244.78 253.947 1232.92 263.833 1219.54 269.536C1205.56 275.543 1193.24 277.52 1174.62 276.912C1152.65 276.151 1134.71 271.285 1111.9 260.03C1091.6 250.069 1074.5 238.206 1045.38 214.025C1011.63 186.041 996.578 174.483 985.175 167.791C981.906 165.966 979.245 164.217 979.245 164.065C979.245 163.229 994.829 172.125 1003.57 177.905C1008.82 181.403 1022.5 191.136 1033.98 199.577C1066.06 223.074 1080.12 232.351 1098.22 241.78C1134.78 260.943 1174.39 267.407 1205.94 259.346C1228.36 253.643 1242.65 243.833 1264.01 219.576C1293.66 185.889 1308.64 174.407 1330.23 169.008C1336.01 167.563 1338.97 167.335 1351.36 167.335C1367.48 167.335 1375.23 168.551 1388 173.038C1407.01 179.73 1425.71 193.037 1436.5 207.333L1439.92 211.896V208.854C1439.92 206.116 1439.32 205.128 1434.3 199.653C1424.42 188.931 1416.59 183 1403.51 176.46C1376.14 162.696 1341.93 160.871 1317.15 171.821C1300.58 179.197 1285.45 192.201 1262.19 219.12C1248.28 235.241 1239.61 242.845 1227.75 249.308C1203.5 262.616 1166.56 263.909 1132.2 252.806C1103.54 243.453 1083.92 232.275 1039.53 199.729C1007.07 176.004 989.66 164.749 978.105 160.035C975.824 159.122 974 158.134 974.228 157.982C974.836 157.297 991.104 164.597 1000.15 169.616C1005.17 172.43 1019.38 181.098 1031.7 188.931C1067.35 211.515 1081.42 219.576 1098.29 227.18C1128.32 240.792 1160.48 247.331 1186.47 245.202C1198.03 244.29 1205.33 242.845 1215.67 239.423C1232.85 233.72 1241.44 227.56 1266.14 203.379C1276.63 193.113 1287.81 182.695 1290.93 180.11C1303.09 170.224 1315.33 163.609 1328.02 160.263C1334.71 158.438 1336.69 158.21 1349.84 158.21C1361.93 158.21 1365.58 158.514 1372.04 159.883C1398.19 165.51 1419.32 177.753 1435.97 196.839L1439.92 201.402V198.664C1439.92 196.231 1439.16 195.09 1432.55 188.399C1413.55 169.16 1386.56 157.373 1357.59 155.776C1340.72 154.788 1326.43 157.753 1311.07 165.358C1297.54 172.049 1288.04 179.654 1267.97 199.577C1258.54 209.006 1248.35 218.739 1245.47 221.173C1234.21 230.298 1220.76 236.838 1205.78 240.411C1194.84 242.997 1171.12 243.681 1157.51 241.78C1134.48 238.586 1112.58 231.438 1088.03 218.968C1075.71 212.732 1061.73 204.443 1036.64 188.399C1008.13 170.3 994.601 162.696 980.766 157.297C973.392 154.408 973.392 154.027 980.842 156.233C992.549 159.731 1008.97 167.563 1042.34 185.585C1089.55 211.059 1114.41 220.64 1149.15 226.724C1155 227.712 1161.08 228.017 1175.76 228.017C1192.71 228.017 1195.6 227.865 1202.74 226.344C1226.92 221.097 1240.75 213.188 1266.98 189.691C1288.64 170.3 1298.07 163.381 1311.45 157.069C1325.59 150.377 1341.63 147.716 1358.05 149.313C1387.62 152.202 1412.25 163.533 1432.17 183.456C1439.85 191.136 1439.92 191.212 1439.92 188.779C1439.92 186.65 1438.86 185.281 1432.47 179.045C1417.35 164.217 1396.59 153.419 1373.48 148.476C1367.17 147.108 1363.22 146.803 1350.98 146.803C1331.98 146.727 1323.92 148.476 1308.79 156.004C1295.18 162.848 1285.68 169.844 1264.32 189.083C1244.93 206.497 1233.68 213.949 1218.48 219.272C1189.52 229.461 1150.21 227.484 1110.38 213.873C1091.6 207.485 1073.74 199.12 1043.1 182.467C1010.95 164.977 992.092 156.233 979.017 152.811C972.251 150.986 973.012 150.453 980.233 151.974C993.005 154.56 1007.14 159.883 1038.54 173.722C1095.1 198.664 1121.1 206.801 1155.15 210.299C1169.37 211.667 1192.48 210.831 1203.96 208.398C1226.84 203.607 1239.54 196.839 1268.2 174.407C1297.39 151.594 1311.53 143.99 1331.29 140.568C1340.95 138.895 1359.65 139.503 1370.29 141.785C1395.91 147.26 1414.91 157.297 1432.93 174.787C1439.77 181.403 1439.92 181.555 1439.92 179.273C1439.92 177.372 1438.78 175.852 1433.31 170.605C1416.66 154.712 1395.15 143.99 1369.61 138.971C1361.09 137.374 1338.51 137.07 1331.6 138.591C1317.23 141.709 1302.63 148.096 1288.87 157.297C1284.77 160.035 1275.11 167.259 1267.36 173.418C1241.66 193.721 1230.64 199.881 1211.1 204.9C1190.5 210.147 1161.92 209.995 1133.72 204.52C1108.33 199.577 1083.92 190.984 1044.09 173.038C1012.69 158.894 996.806 153.039 981.526 149.693L972.783 147.868L979.625 148.248C992.473 148.933 1006.38 152.811 1047.66 167.107C1089.09 181.403 1109.47 186.954 1134.1 190.832C1176.14 197.448 1210.65 193.721 1238.09 179.578C1242.27 177.372 1254.51 169.692 1265.31 162.468C1276.1 155.244 1288.19 147.488 1292.14 145.13C1317.68 130.454 1340.79 126.728 1370.06 132.659C1394.77 137.678 1422.14 152.659 1437.04 169.388L1439.92 172.582V170.148C1439.92 163.685 1415.9 145.967 1396.21 137.982C1374.93 129.238 1350.07 125.968 1330.76 129.238C1314.8 131.975 1295.94 140.264 1277.62 152.659C1272.22 156.385 1262.95 162.62 1257.1 166.574C1245.16 174.787 1231.63 181.707 1221.22 185.053C1185.79 196.535 1138.28 193.341 1080.73 175.547C1074.5 173.57 1059.6 168.475 1047.66 164.217C1023.49 155.472 1014.52 152.583 1002.81 149.769C993.309 147.488 980.233 145.587 973.468 145.511C968.222 145.435 967.614 144.598 972.175 143.686C987.607 140.796 1004.03 142.545 1019.54 148.704C1023.72 150.377 1027.29 151.214 1033.3 151.746C1043.18 152.583 1056.41 155.168 1074.27 159.807C1105.13 167.715 1111.67 169.312 1122.54 171.441C1154.62 177.677 1182.45 178.437 1207.15 173.646C1224.94 170.224 1239.31 163.913 1268.12 147.031C1302.02 127.108 1317.08 121.557 1339.58 120.721C1373.03 119.428 1409.44 133.724 1435.59 158.438L1439.92 162.544V160.187C1439.92 158.286 1439.01 157.069 1434.6 153.115C1425.78 145.13 1416.59 139.047 1404.57 133.116C1391.96 126.804 1380.93 123.002 1367.71 120.417C1356.07 118.059 1335.02 117.831 1325.13 119.96C1308.03 123.61 1292.6 130.454 1266.83 145.815C1241.66 160.795 1232.09 165.206 1215.29 169.54C1200.61 173.266 1193.24 174.103 1173.48 174.027C1147.93 174.027 1132.2 171.517 1087.8 160.415C1057.47 152.735 1049.56 151.138 1037.48 149.769C1029.65 148.933 1025.62 148.02 1019.08 145.663C1006.31 141.1 1000.3 140.036 987.607 140.036C976.584 139.96 976.584 139.96 980.766 138.895C983.502 138.211 989.052 137.83 996.73 137.754C1007.3 137.754 1009.27 137.982 1016.11 139.807C1022.27 141.556 1025.69 142.013 1034.36 142.241C1040.21 142.393 1048.27 142.849 1052.22 143.305C1060.05 144.218 1081.64 147.792 1087.19 149.085C1088.26 149.313 1089.93 149.693 1090.99 149.845C1092.06 149.997 1093.58 150.301 1094.49 150.529C1095.4 150.758 1097.46 151.062 1099.05 151.29C1100.65 151.594 1102.62 151.898 1103.31 152.126C1104.07 152.354 1105.59 152.659 1106.73 152.887C1108.78 153.191 1113.8 154.103 1114.56 154.332C1114.79 154.332 1116.84 154.712 1119.12 155.016C1121.4 155.32 1123.83 155.7 1124.44 155.852C1125.05 155.928 1127.64 156.309 1130.14 156.613C1132.65 156.993 1134.86 157.297 1135.09 157.373C1135.31 157.449 1138.58 157.753 1142.31 158.134C1146.11 158.438 1149.83 158.894 1150.67 158.97C1151.51 159.122 1159.72 159.274 1168.91 159.35C1185.33 159.502 1194.84 158.818 1206.92 156.613C1224.41 153.419 1235.66 149.085 1266.37 133.876C1290.85 121.709 1298.6 118.44 1309.02 115.626C1312.9 114.561 1316.09 113.725 1316.24 113.801C1316.54 113.801 1321.64 112.888 1323.99 112.432C1327.72 111.596 1352.5 111.444 1357.06 112.128C1366.03 113.497 1367.48 113.801 1373.18 115.246C1396.14 121.025 1419.32 133.724 1435.59 149.313L1439.92 153.495V151.138C1439.92 149.161 1439.09 148.02 1435.36 144.674C1416.81 127.869 1389.6 114.942 1362.76 110.151C1352.2 108.326 1332.51 108.25 1323.23 110.075C1305.75 113.573 1294.57 117.831 1266.6 131.899C1241.97 144.218 1231.25 148.628 1217.64 152.05C1203.43 155.624 1190.05 157.145 1171.95 157.069C1150.75 157.069 1138.35 155.624 1099.36 148.552C1066.21 142.469 1055.87 141.024 1040.06 140.188C1028.96 139.579 1023.34 138.895 1017.64 137.526C1005.7 134.561 987.987 134.332 979.397 136.918C978.333 137.298 978.333 137.146 979.473 136.462C980.233 136.005 984.11 134.713 988.215 133.648C994.145 132.127 997.414 131.747 1005.09 131.747C1010.57 131.671 1015.51 132.051 1016.8 132.583C1018.32 133.192 1022.42 133.268 1030.86 132.888C1037.4 132.583 1046.14 132.355 1050.32 132.279C1057.62 132.279 1076.47 133.344 1077.31 133.8C1077.54 133.876 1079.74 134.256 1082.25 134.485C1084.76 134.789 1093.12 135.853 1100.88 136.842C1108.63 137.906 1116.84 138.895 1119.12 139.123C1121.4 139.351 1124.37 139.731 1125.58 139.884C1126.88 140.112 1130.07 140.416 1132.8 140.644C1135.54 140.872 1140.63 141.404 1144.21 141.709C1154.77 142.697 1178.87 142.697 1189.44 141.785C1211.1 139.884 1229.43 135.093 1252.76 125.283C1286.21 111.216 1299.44 106.273 1306.51 105.056C1307.8 104.828 1311.53 104.068 1314.87 103.307C1319.36 102.395 1324.98 102.014 1336.16 101.938C1351.59 101.862 1356.61 102.243 1365.42 104.22C1368.16 104.828 1371.2 105.512 1372.27 105.741C1377.51 106.805 1391.04 111.9 1398.72 115.55C1413.55 122.622 1425.33 130.454 1435.36 139.807C1439.32 143.458 1439.54 143.61 1439.77 141.937C1440.08 139.807 1438.94 138.363 1431.94 132.659C1401.53 107.794 1359.12 94.7904 1323.46 99.5811C1306.89 101.786 1292.37 106.425 1263.79 118.668C1224.26 135.625 1205.33 139.884 1169.67 139.884C1149.68 139.807 1145.35 139.503 1105.06 134.561C1063.78 129.466 1050.32 128.705 1034.66 130.53C1028.35 131.215 1025.77 131.215 1020.75 130.302C1010.87 128.629 996.273 129.086 987.607 131.367C983.654 132.355 980.309 133.116 980.157 133.04C979.549 132.507 992.016 127.945 998.022 126.424C1003.42 125.131 1006.76 124.827 1015.35 124.903C1023.34 124.979 1027.75 124.675 1032.84 123.534C1050.02 119.884 1076.25 119.656 1113.04 122.774C1136.61 124.827 1177.35 125.664 1191.11 124.371C1213.92 122.242 1226.31 119.124 1262.04 106.653C1296.55 94.6383 1308.18 91.9008 1328.18 91.1404C1364.66 89.6956 1404.95 104.22 1433.84 129.162C1439.24 133.8 1439.54 133.952 1439.77 132.203C1440.08 130.074 1438.94 128.933 1428.9 121.329C1409.59 106.653 1386.79 96.3873 1362.31 91.2164C1349.46 88.4789 1329.62 87.7945 1316.39 89.6956C1302.63 91.5966 1286.59 96.0071 1263.94 104.144C1225.55 117.831 1210.57 121.177 1180.47 122.774C1165.11 123.534 1147.25 122.85 1117.98 120.417C1107.57 119.58 1089.7 118.668 1078.37 118.44C1056.56 117.983 1046.14 118.668 1033.6 121.253C1028.58 122.242 1023.79 122.622 1015.73 122.622C1003.72 122.546 996.198 123.839 986.771 127.717C984.186 128.781 981.83 129.618 981.602 129.618C980.613 129.542 984.566 127.032 990.04 124.219C998.25 120.113 1007.37 117.603 1017.86 116.691C1023.41 116.234 1029.04 115.246 1032.84 114.029C1054.2 107.185 1072.67 105.969 1129.92 107.489C1168.53 108.554 1185.79 108.022 1205.4 105.208C1220 103.155 1228.97 101.026 1255.5 93.4217C1296.78 81.6351 1302.48 80.6465 1326.65 80.6465C1345.66 80.6465 1350.98 81.2549 1366.34 85.133C1389.6 91.1404 1415.22 104.296 1433.69 119.884C1439.7 124.979 1440 125.131 1439.77 123.078C1439.32 118.972 1420.99 105.512 1404.19 96.9196C1377.66 83.4601 1350.68 77.0725 1324.75 78.2132C1305.67 79.0497 1291.84 81.7111 1262.57 90.1518C1231.33 99.2009 1218.55 102.09 1197.42 104.676C1188.98 105.741 1158.04 105.893 1103.16 105.284C1066.06 104.828 1054.96 105.893 1033.6 112.128C1029.19 113.421 1022.42 114.714 1017.64 115.094C1007.07 116.082 999.922 118.059 989.964 122.85C981.754 126.728 981.146 126.12 988.367 121.253C997.946 114.714 1007.9 110.759 1019.31 108.782C1023.64 108.022 1029.27 106.273 1034.13 104.22C1042.19 100.722 1051.84 97.9081 1062.49 95.855C1077.23 92.9654 1087.34 92.3571 1130.9 91.5966C1199.17 90.456 1203.96 89.9237 1260.14 77.1486C1289.1 70.5329 1308.03 68.2516 1325.82 69.0881C1356.91 70.5329 1385.11 79.2017 1412.48 95.5508C1419.32 99.7332 1431.94 108.858 1436.88 113.345C1439.85 116.006 1439.92 116.082 1439.92 114.257C1439.92 112.052 1437.26 109.391 1428.67 103.155C1409.21 88.7831 1386.71 78.1371 1363.45 72.2058C1349.76 68.6318 1338.21 67.2631 1323.01 67.2631C1303.24 67.2631 1288.49 69.3162 1259 76.084C1208.52 87.7185 1202.21 88.4029 1140.79 89.3154C1115.7 89.6956 1091.45 90.38 1086.81 90.8362C1063.93 93.1175 1050.48 96.1592 1033.07 102.927C1028.73 104.6 1021.74 106.653 1017.41 107.566C1007.52 109.543 997.87 113.421 990.268 118.364C989.052 119.2 990.192 117.679 992.929 115.018C998.934 109.238 1008.51 103.992 1018.4 101.102C1022.12 100.037 1028.81 97.2998 1033.22 95.0946C1049.11 86.9581 1066.9 81.6351 1087.57 78.7455C1103.92 76.4642 1113.95 75.7798 1149.91 74.4871C1196.43 72.8142 1204.34 72.0537 1241.89 65.362C1282.41 58.138 1293.81 56.9974 1315.18 57.6057C1360.86 58.9745 1400.17 73.9548 1437.49 104.22C1439.85 106.197 1439.92 106.197 1439.92 104.676C1439.92 101.178 1419.55 86.7299 1401.69 77.5288C1368.31 60.2672 1335.62 53.3474 1299.36 55.7807C1283.86 56.8453 1275.57 57.9859 1248.73 62.7006C1205.4 70.3048 1198.49 70.9892 1133.56 73.3465C1085.22 75.1715 1061.88 79.734 1035.5 92.5092C1029.42 95.3987 1021.66 98.6686 1018.17 99.6571C1014.67 100.646 1009.73 102.547 1007.14 103.839C1001.06 106.957 1002.66 105.056 1011.02 99.353C1027.37 88.1747 1058.38 75.7038 1088.56 68.0995C1110.07 62.7006 1125.28 60.6474 1166.63 57.3776C1202.44 54.64 1205.48 54.3359 1233.99 50.5338C1262.27 46.8077 1275.42 45.4389 1289.41 44.7545C1338.89 42.5493 1393.93 60.2672 1431.87 90.6841C1435.29 93.4217 1438.48 95.9311 1439.01 96.3873C1439.7 96.9196 1439.92 96.6915 1439.92 95.4748C1439.92 93.6498 1432.32 87.3383 1420.54 79.4299C1393.93 61.636 1364.13 50.0015 1332.66 45.1348C1323.31 43.69 1318.52 43.3858 1300.05 43.3858C1277.01 43.3098 1275.87 43.3858 1238.85 48.2525C1209.05 52.1307 1205.71 52.4348 1173.48 54.7161C1143.14 56.8453 1126.95 58.6703 1109.01 62.0162C1063.93 70.4569 1021.89 87.4143 999.846 106.121C990.344 114.181 989.888 114.409 993.537 110.075C999.542 102.775 1013.53 90.1518 1020.9 85.2091C1035.2 75.7038 1060.28 63.6891 1080.73 56.6932C1109.16 46.8837 1130.37 43.1577 1181.46 39.1274C1192.56 38.2149 1211.71 36.542 1224.03 35.3253C1260.06 31.7513 1268.42 31.2951 1289.41 31.7513C1309.4 32.1315 1319.58 33.2722 1336.16 36.8462C1372.19 44.6785 1406.86 61.3318 1435.97 84.6768C1439.47 87.5664 1439.92 87.7185 1439.92 86.3497C1439.92 84.4487 1431.87 77.833 1419.25 69.4683C1380.32 43.69 1339.96 31.0669 1291.31 29.47C1275.57 29.0138 1261.66 29.7742 1231.4 32.7399C1220.99 33.7284 1199.09 35.6295 1182.75 36.8462C1143.45 39.8878 1127.41 42.017 1106.2 47.1879C1070.09 56.0849 1030.94 74.0309 1009.65 91.5966C1006.92 93.8019 1001.67 98.7446 997.946 102.547C991.028 109.619 991.712 108.098 1000.07 97.68C1011.4 83.6882 1023.41 73.5746 1041.51 62.7006C1083.16 37.7587 1115.4 27.7211 1168.91 22.8544C1263.86 14.2616 1295.79 14.7939 1337.68 25.82C1372.87 35.0211 1408.98 53.2713 1434.98 74.7913C1439.16 78.2892 1440.68 78.6694 1439.7 76.084C1439.47 75.4756 1435.36 72.1298 1430.65 68.5558C1379.64 30.2305 1315.78 11.8282 1246.83 15.5543ZM19.8019 66.8829C24.6671 72.2819 37.3624 87.1862 48.0051 99.9613C72.3314 129.162 82.8221 140.872 96.2776 154.408C124.937 183.076 151.088 199.273 178.759 205.28C186.589 207.029 205.67 207.637 215.02 206.421C230.072 204.596 249.229 198.664 269.07 189.691C273.555 187.714 286.783 181.479 298.49 175.776C330.418 160.339 346.914 153.647 377.93 143.305C448.856 119.808 492.796 117.071 537.951 133.268C569.043 144.446 596.106 161.327 617.544 183C628.263 193.874 637.157 204.596 655.934 229.233C674.559 253.719 682.769 263.68 692.803 273.946C706.411 287.938 717.434 296.379 730.509 303.07C734.006 304.819 736.667 306.416 736.439 306.568C735.754 307.253 720.322 299.42 714.241 295.39C695.996 283.147 682.465 268.699 652.893 229.842C634.648 205.888 628.187 198.208 616.556 186.574C601.58 171.669 586.3 160.871 565.014 150.225C532.326 133.8 502.906 127.184 472.803 129.466C452.657 130.987 435.325 134.561 405.753 143.381C364.551 155.7 336.804 166.194 297.425 184.368C247.937 207.105 227.868 213.264 202.705 213.264C166.368 213.264 133.755 196.991 97.4179 160.795C84.0384 147.412 73.6237 135.245 44.6603 98.9727C21.7024 70.3048 18.6616 66.6548 6.34641 52.663L0.72096 46.3514L5.81427 51.6744C8.627 54.564 14.9366 61.4078 19.8019 66.8829ZM5.81427 56.6172C7.41068 58.2901 8.627 59.6588 8.39894 59.6588C8.17088 59.6588 6.65049 58.2901 5.05408 56.6172C3.45767 54.9442 2.24135 53.5755 2.46941 53.5755C2.69747 53.5755 4.21786 54.9442 5.81427 56.6172ZM12.1239 69.6964C16.229 74.8673 27.2518 88.9352 36.6022 101.102C66.5539 140.036 80.8456 157.145 96.6577 172.962C124.709 201.022 152.608 217.295 180.659 222.009C189.63 223.53 206.582 223.758 216.008 222.465C237.826 219.424 252.042 214.709 302.291 193.721C356.569 171.061 402.18 154.484 432.74 146.423C455.47 140.416 478.048 137.906 496.369 139.351C531.262 142.241 569.88 158.514 599.071 182.771C612.603 193.95 624.462 207.257 647.8 237.598C665.284 260.259 673.266 269.688 683.681 279.954C698.505 294.706 710.82 303.299 725.112 309.078C733.398 312.424 734.918 313.336 729.065 311.663C712.796 306.872 698.125 297.671 682.085 282.083C671.898 272.197 663.688 262.54 647.42 241.4C630.619 219.576 623.625 211.135 613.971 201.174C598.083 184.749 582.651 173.494 562.278 163.457C524.344 144.902 491.96 140.036 455.318 147.488C428.179 152.963 373.521 172.658 285.186 208.702C237.142 228.245 206.962 233.492 177.162 227.332C150.632 221.857 125.849 206.801 98.9383 179.806C80.0854 160.947 65.4136 142.925 34.3216 100.646C24.059 86.6539 13.0361 71.9017 9.76729 67.7954C6.57447 63.7651 4.06582 60.4193 4.29388 60.4193C4.44592 60.4193 8.01884 64.6016 12.1239 69.6964ZM17.0652 69.6964C21.3983 74.8673 33.4854 89.6195 43.9001 102.623C74.536 140.796 90.272 158.514 105.932 172.734C154.433 216.61 197.004 225.583 254.778 203.987C260.404 201.858 279.789 193.721 297.806 185.813C341.821 166.574 353.148 162.164 384.772 151.67C433.12 135.549 459.879 130.302 488.539 131.367C508.836 132.127 526.625 136.081 547.454 144.522C574.441 155.548 596.639 170.376 616.252 190.528C627.046 201.63 633.508 209.462 652.741 234.556C670.986 258.357 675.699 264.061 686.494 275.087C701.622 290.599 712.188 298.584 727.088 305.732C736.439 310.218 737.123 310.827 729.445 307.937C715.305 302.614 701.774 293.641 688.166 280.562C677.751 270.524 668.857 260.106 652.589 238.815C645.215 229.157 636.245 217.675 632.672 213.264C624.614 203.303 607.433 185.737 599.907 179.578C580.294 163.761 550.343 148.704 525.18 142.165C510.28 138.363 500.246 136.994 486.258 136.994C462.236 136.918 443.079 140.948 400.812 154.788C362.042 167.563 332.851 178.589 299.554 193.113C267.17 207.333 252.498 212.808 235.774 217.066C194.951 227.408 160.058 220.032 124.937 193.569C101.979 176.232 80.9216 153.571 47.9291 110.759C19.8019 74.335 15.6968 69.0881 12.0479 64.7537C9.99535 62.3964 8.47496 60.4193 8.70302 60.4193C8.93108 60.4193 12.7321 64.6016 17.0652 69.6964ZM19.9539 86.4258C25.9595 94.4862 36.2981 108.478 42.9879 117.451C78.641 165.51 103.651 192.125 129.194 209.31C162.795 231.971 196.699 237.446 238.054 226.952C253.942 222.922 265.041 218.892 313.542 199.653C378.842 173.722 424.606 157.145 444.219 152.431C476.3 144.674 498.649 144.598 526.016 152.126C556.424 160.491 585.616 177.22 607.509 198.816C617.164 208.398 625.602 218.283 642.63 240.259C661.179 264.137 667.869 272.121 677.143 281.398C692.803 297.063 708.311 307.253 725.34 312.956C733.398 315.617 731.649 315.845 722.603 313.26C707.551 308.926 690.447 298.204 676.307 284.212C667.033 275.087 658.823 265.429 643.999 246.343C627.35 224.899 621.877 218.435 610.626 206.877C590.177 185.965 573.377 174.483 548.29 164.217C507.848 147.716 474.627 146.955 432.056 161.632C418.981 166.194 372.381 184.216 306.472 210.223C275.38 222.465 263.293 226.8 249.001 230.754C201.261 243.833 166.292 239.651 131.627 216.686C120.072 209.006 112.318 202.466 98.5582 188.627C78.0329 168.019 61.5366 147.26 28.8482 100.646C19.8779 87.7945 11.5918 76.084 10.3754 74.5631C9.23515 73.0423 8.47496 71.8256 8.70302 71.8256C8.93108 71.8256 13.9484 78.4413 19.9539 86.4258ZM27.5559 104.296C56.5954 145.511 69.7467 162.544 88.6756 182.923C118.855 215.546 147.591 233.34 180.279 239.499C189.402 241.172 210.611 241.172 220.57 239.499C221.634 239.347 223.914 238.967 225.663 238.739C231.516 237.902 249.761 233.187 260.176 229.766C279.485 223.378 329.658 204.139 394.274 178.285C444.295 158.286 461.932 153.799 488.919 154.027C518.794 154.256 550.267 164.521 578.242 183.228C590.253 191.212 597.475 197.295 608.27 208.398C617.24 217.599 622.485 223.986 650.08 258.966C662.7 274.935 679.12 291.892 689.23 299.42C697.593 305.58 712.036 313.032 720.779 315.541C724.351 316.53 726.48 317.366 725.644 317.366C722.451 317.518 710.364 313.488 702.914 309.914C689.534 303.451 676.383 293.109 663.992 279.497C657.226 272.045 653.881 267.939 629.403 237.218C611.614 214.937 599.527 202.466 585.16 191.592C565.242 176.612 534.455 163.761 508.684 159.731C478.656 155.016 455.926 159.35 410.238 178.513C399.824 182.847 381.807 190.376 370.252 195.242C344.101 206.192 294.917 225.659 279.561 231.134C259.188 238.358 240.715 243.225 223.838 245.658C211.447 247.483 190.694 247.331 179.215 245.278C135.58 237.522 98.5582 207.257 50.6658 140.264C41.1634 126.88 11.2877 82.4716 11.8198 82.4716C11.9719 82.4716 19.1177 92.281 27.5559 104.296ZM22.9947 105.436C55.7591 154.256 71.1151 174.331 93.0087 196.915C111.786 216.23 126.533 227.56 144.93 236.457C153.9 240.868 168.8 246.191 174.578 247.103C176.782 247.483 178.607 247.864 182.56 248.7C183.624 248.852 189.25 249.232 195.103 249.537C219.809 250.601 243.299 245.734 284.426 231.134C319.775 218.511 356.265 203.987 394.274 187.41C430.46 171.593 444.599 166.498 461.552 163C469.078 161.48 472.499 161.175 486.258 161.175C504.731 161.175 507.696 161.48 521.227 164.977C554.068 173.342 582.955 190.376 606.597 215.165C614.123 223.074 618.836 228.701 643.619 260.03C657.606 277.672 675.015 295.542 685.429 302.918C694.172 309.078 707.095 315.389 715.837 317.747C719.638 318.811 722.147 319.648 721.463 319.648C720.779 319.724 716.901 318.887 712.872 317.899C694.172 313.108 675.319 300.485 657.682 280.866C653.805 276.532 643.239 263.757 634.268 252.502C610.246 222.389 599.755 211.059 585.388 199.577C575.885 191.973 569.195 187.866 555.816 181.403C524.724 166.422 493.176 161.327 465.201 166.879C447.716 170.3 434.261 175.471 391.538 195.242C347.142 215.774 302.291 234.024 272.643 243.681C197.46 268.015 147.895 257.901 98.1021 207.941C75.6003 185.281 55.303 158.134 22.3105 106.425C17.5213 98.8967 13.1122 91.9768 12.428 90.9883C11.8198 90.0758 11.5157 89.3154 11.7438 89.3154C11.9719 89.3154 16.9892 96.6154 22.9947 105.436ZM19.1937 107.566C45.7246 149.541 65.1096 176.308 84.1905 197.372C115.891 232.503 144.018 250.221 179.139 257.141C189.706 259.194 215.4 259.042 228.476 256.761C253.182 252.502 285.11 242.313 330.722 224.214C355.58 214.329 369.644 208.17 394.959 196.003C438.138 175.319 453.874 169.844 476.756 167.563C509.444 164.293 553.079 178.057 582.347 200.946C596.639 212.124 608.346 224.671 630.771 253.187C646.964 273.794 652.817 280.638 662.319 290.143C678.892 306.644 696.148 317.062 713.405 320.788C715.989 321.397 717.206 321.853 716.141 321.929C712.112 322.081 698.961 318.127 691.511 314.477C673.418 305.656 657.53 290.752 632.596 259.65C612.983 235.089 606.065 227.18 594.89 216.306C585.008 206.725 580.218 202.847 570.032 196.231C552.699 184.901 524.952 174.787 503.895 172.202C492.34 170.757 472.271 171.593 462.312 173.95C445.055 178.057 436.997 181.403 395.415 202.238C359.229 220.336 345.546 226.572 317.723 237.674C266.637 257.977 235.622 265.734 204.834 265.734C159.982 265.734 124.253 247.864 87.8394 207.029C66.1738 182.695 48.3852 157.525 19.8779 110.607C7.8668 90.8362 7.94282 90.9123 9.0071 91.9768C9.46321 92.3571 14.0244 99.429 19.1937 107.566ZM19.9539 117.071C60.7004 183.836 92.3246 222.009 125.241 244.138C134.515 250.297 151.62 258.738 161.198 261.855C175.794 266.646 183.244 267.635 203.465 267.635C219.125 267.635 223.078 267.33 231.592 265.81C272.263 258.586 338.172 234.024 389.713 206.953C442.167 179.35 458.663 173.722 486.258 173.57C527.613 173.418 572.388 194.558 603.024 228.701C606.901 232.959 618.076 246.571 627.883 258.89C654.109 291.664 668.325 305.352 685.962 314.781C696.148 320.18 708.843 324.058 717.586 324.362C719.486 324.438 719.866 324.59 718.65 324.818C715.685 325.427 704.282 323.602 697.669 321.473C689.534 318.963 677.979 312.956 670.302 307.329C661.179 300.637 643.543 282.387 631.075 266.874C606.597 236.305 595.118 223.606 582.043 212.656C563.114 196.839 539.396 185.509 513.473 180.034C504.731 178.209 502.146 177.981 487.779 177.981C473.715 177.905 470.826 178.133 463.984 179.654C446.272 183.608 428.863 191.44 394.274 210.983C361.966 229.233 342.201 238.663 308.98 251.742C266.866 268.319 235.545 275.619 206.354 275.619C171.537 275.619 141.813 264.821 113.458 241.932C105.096 235.241 88.2195 218.131 79.4773 207.561C60.4724 184.52 42.3797 157.677 19.8779 118.972C4.14184 91.8248 4.14184 91.1404 19.9539 117.071ZM7.33466 103.763C8.01884 104.98 8.32292 106.045 8.17088 106.045C7.94282 106.045 7.25865 104.98 6.57447 103.763C5.89029 102.471 5.58621 101.482 5.73825 101.482C5.96631 101.482 6.65049 102.471 7.33466 103.763ZM5.81427 109.086C6.87855 111.14 7.56272 112.888 7.33466 112.888C7.18263 112.888 6.11835 111.14 5.05408 109.086C3.9898 106.957 3.30563 105.284 3.53368 105.284C3.68572 105.284 4.75 106.957 5.81427 109.086ZM984.262 112.736C982.21 118.896 978.333 125.816 977.041 125.816C976.584 125.816 978.181 121.785 980.461 116.843C982.818 111.976 984.871 107.489 985.099 106.957C985.327 106.425 985.707 106.121 985.859 106.349C986.087 106.577 985.327 109.391 984.262 112.736ZM17.9774 122.318C40.3272 160.491 61.0805 191.136 77.3487 209.842C100.079 236.001 121.136 253.339 142.65 263.833C164.771 274.555 183.396 278.433 209.395 277.672C232.657 277.064 251.358 273.11 285.718 261.551C328.441 247.255 355.352 235.089 397.999 210.603C439.658 186.802 455.698 180.87 481.317 180.034C495.228 179.578 504.655 180.566 518.186 184.064C544.641 190.756 564.254 201.022 584.323 218.587C594.206 227.18 602.188 236.229 621.953 260.791C640.35 283.68 647.648 291.968 656.466 299.953C667.641 310.142 676.839 316.15 688.47 320.712C695.54 323.526 708.311 326.491 714.089 326.644C716.141 326.72 716.673 326.872 715.457 327.1C712.796 327.632 700.253 325.959 693.944 324.21C681.552 320.712 667.337 312.5 654.641 301.245C645.975 293.641 637.841 284.44 618.076 260.03C602.416 240.716 587.288 224.443 577.862 216.838C557.184 200.185 532.554 189.235 505.263 184.672C493.632 182.695 474.779 182.923 464.593 185.053C453.038 187.486 443.839 190.756 432.056 196.535C421.87 201.478 418.069 203.683 381.047 226.116C371.24 232.047 358.165 239.423 352.084 242.541C312.781 262.464 270.819 277.216 236.534 283.223C224.523 285.353 202.249 286.113 190.922 284.82C138.468 278.813 96.4296 247.864 53.5546 183.608C42.2277 166.65 23.6029 135.169 11.8958 113.269C6.19437 102.623 8.39894 105.969 17.9774 122.318ZM9.99535 125.588C54.999 211.896 95.7455 260.791 141.813 283.527C163.935 294.402 186.057 299.04 212.207 298.204C233.493 297.519 252.726 293.717 280.473 284.592C317.038 272.729 352.16 256 379.831 237.37C385.684 233.492 396.783 226.039 404.537 220.793C439.43 197.448 457.067 191.288 486.486 192.201C504.731 192.733 520.315 196.307 538.94 204.139C565.851 215.546 583.183 230.678 615.415 271.057C635.561 296.227 645.139 306.188 658.062 315.541C670.53 324.514 683.377 329.457 699.113 331.51L707.475 332.575L699.493 332.195C686.342 331.51 677.447 329.153 666.348 323.222C649.548 314.325 637.613 302.538 607.813 265.734C595.118 249.993 581.207 235.241 572.616 228.321C545.097 206.04 509.368 193.721 477.136 195.242C451.517 196.459 430.004 205.964 395.035 231.515C357.177 259.194 349.955 263.757 327.377 274.859C298.794 288.85 270.438 298.432 242.235 303.679C192.975 312.88 149.643 301.93 110.493 270.372C77.3487 243.605 47.2449 201.098 11.8198 130.911C7.03059 121.405 3.30563 113.649 3.45767 113.649C3.6097 113.649 6.57447 119.048 9.99535 125.588ZM16.0769 127.717C30.2166 153.115 46.3327 179.121 58.5719 196.155C108.061 264.821 158.918 293.489 220.95 287.786C253.714 284.744 302.671 269.308 345.014 248.624C365.159 238.815 370.404 235.849 395.035 220.488C427.571 200.185 440.494 193.721 456.534 189.691C476.756 184.596 494.468 184.749 516.666 190.3C528.525 193.265 538.94 197.067 549.354 202.238C572.236 213.416 589.265 229.081 618.532 265.734C636.473 288.242 651.373 304.135 661.711 311.739C673.266 320.18 686.722 326.111 698.809 328.088C706.867 329.381 707.019 329.457 703.978 329.533C695.92 329.761 680.488 325.427 670.682 320.028C657.454 312.88 641.034 297.291 622.789 274.859C597.779 244.138 587.896 233.187 576.265 223.454C543.729 196.307 496.141 183.304 460.411 191.896C440.418 196.763 427.419 203.531 388.877 229.309C360.066 248.548 345.242 257.065 323.196 266.874C273.403 289.079 227.944 299.04 193.127 295.466C145.766 290.599 105.78 264.669 68.1503 214.709C51.7301 192.885 31.813 160.263 14.1764 126.196C6.72651 111.9 7.71476 112.66 16.0769 127.717ZM24.9712 173.722C56.5954 231.971 87.8394 270.296 123.113 293.793C168.116 323.83 217.453 327.936 279.561 306.72C310.501 296.151 341.061 280.79 364.627 263.985C368.808 261.019 379.907 252.426 389.333 244.822C422.706 218.131 436.541 210.071 457.143 205.508C467.405 203.227 487.55 203.075 499.181 205.204C543.273 213.264 566.307 229.309 609.942 282.463C623.549 299.04 630.467 306.72 638.525 313.868C650.156 324.286 661.331 330.826 673.646 334.476C677.219 335.54 679.348 336.377 678.512 336.377C675.547 336.453 663.536 332.651 657.226 329.609C640.958 321.777 628.263 309.382 597.171 271.057C585.92 257.141 569.5 240.716 559.313 233.187C545.173 222.694 529.057 215.241 511.497 210.983C487.702 205.128 468.317 205.052 449.008 210.603C441.863 212.656 428.863 218.511 422.402 222.542C414.42 227.56 398.151 240.335 381.047 255.088C371.24 263.452 359.457 273.11 354.896 276.532C327.453 296.759 294.005 312.652 259.72 321.625C215.932 333.107 178.379 330.294 143.182 312.88C102.739 292.805 68.6065 256 35.1578 196.307C27.6319 182.847 16.6851 161.175 10.0714 146.727C2.39339 129.998 2.62145 129.77 10.6035 145.967C14.3285 153.495 20.7901 165.966 24.9712 173.722ZM15.0126 164.977C35.69 207.181 56.8234 240.411 78.413 264.593C87.9154 275.315 101.447 288.394 109.201 294.63C133.603 314.02 161.882 326.339 189.478 329.609C201.185 330.978 225.967 330.217 237.674 328.164C281.613 320.332 331.026 297.671 367.287 268.699C371.24 265.582 380.667 257.521 388.193 250.981C420.349 222.846 435.857 213.873 459.271 209.766C470.142 207.865 489.983 208.626 502.374 211.287C521.455 215.47 540.004 223.226 552.927 232.503C568.587 243.757 578.85 254.099 603.632 283.984C635.865 322.841 653.501 335.845 679.12 339.495L683.909 340.179L677.827 339.875C662.091 339.038 646.811 331.89 630.923 317.975C622.789 310.827 614.807 301.93 598.463 281.702C573.148 250.449 553.231 233.187 531.566 223.834C514.081 216.306 494.62 212.276 475.995 212.2C462.388 212.2 454.026 213.493 442.167 217.599C423.238 224.138 409.934 233.644 377.55 263.833C360.598 279.649 354.136 285.124 342.961 293.109C320.003 309.534 291.344 323.298 263.141 331.51C219.505 344.133 180.583 342.004 145.462 325.047C125.241 315.313 110.265 304.515 92.7807 287.025C67.1621 261.551 45.9526 230.222 22.6906 183.608C14.4805 167.335 2.84951 142.089 1.86125 138.743C1.55718 137.45 1.40514 137.222 15.0126 164.977ZM11.8958 169.844C30.6727 210.147 54.6189 249.004 74.9921 272.197C106.54 308.089 136.264 328.316 170.777 337.213C195.027 343.449 222.926 343.221 250.977 336.453C280.929 329.229 314.682 314.02 341.441 295.542C356.265 285.353 366.147 277.14 387.889 256.685C411.683 234.252 426.203 224.291 442.927 218.663C469.306 209.842 505.035 213.645 534.455 228.397C554.524 238.51 569.043 251.59 596.03 283.984C624.31 317.899 638.373 330.446 656.086 337.594C664.144 340.863 669.161 341.928 679.728 342.536L689.991 343.145L677.827 342.917C664.752 342.764 661.179 342.08 651.221 337.898C636.701 331.89 618.912 316.074 599.147 291.588C579.61 267.407 566.155 253.263 553.916 244.138C534.15 229.233 510.128 220.336 482.533 217.827C461.172 215.85 438.822 220.869 420.805 231.819C409.782 238.51 398.912 247.864 375.726 270.752C351.779 294.249 342.961 301.778 327.757 311.815C310.349 323.298 293.7 331.586 273.935 338.658C239.803 350.901 207.494 353.867 177.619 347.555C165.607 344.97 156.561 341.776 143.41 335.312C103.956 316.074 70.4309 281.094 38.8828 226.116C31.5089 213.264 14.5565 179.121 7.94282 163.837C-1.55963 141.937 -0.0392359 144.218 11.8958 169.844ZM933.253 156.993C934.622 157.601 934.622 157.677 932.873 157.677C931.809 157.677 930.441 157.373 929.832 156.993C928.92 156.385 928.92 156.233 930.212 156.309C931.049 156.309 932.417 156.613 933.253 156.993ZM883.08 162.164C867.496 170.3 858.602 177.144 842.714 193.037C824.545 211.287 814.055 225.431 792.541 260.791C779.542 282.311 776.197 287.178 765.098 301.397C764.946 301.55 764.642 301.55 764.414 301.245C764.11 301.017 764.566 300.181 765.326 299.42C767.607 297.139 778.705 279.801 786.155 266.874C803.944 236.153 809.569 227.332 819.908 214.101C827.206 204.672 842.334 188.779 851.076 181.403C861.947 172.125 877.607 162.392 887.261 158.818C892.507 156.917 891.29 157.83 883.08 162.164ZM889.162 161.784C867.876 172.962 849.328 189.311 829.487 214.329C821.048 224.975 813.066 236.609 800.979 255.848C794.822 265.658 787.6 276.912 784.863 280.866C779.542 288.394 769.431 300.941 767.759 301.93C766.77 302.538 767.987 300.713 770.039 298.584C773.612 294.706 783.495 279.725 795.886 259.27C813.218 230.678 825.762 213.34 840.509 197.6C855.485 181.555 869.853 170.376 885.285 162.696C897.144 156.765 899.881 156.157 889.162 161.784ZM901.325 161.784C887.87 168.932 875.478 178.665 861.035 193.569C846.211 208.778 835.72 222.237 813.903 253.947C797.102 278.281 789.5 288.242 780.682 297.215L773.08 304.895L779.314 297.747C789.956 285.353 795.962 276.912 817.475 244.062C845.071 202.01 870.461 176.156 897.676 162.316C906.722 157.753 909.839 157.297 901.325 161.784ZM866.66 159.578C866.508 159.731 863.695 160.947 860.503 162.24C840.357 170.224 817.247 185.205 802.804 199.577C790.945 211.439 784.559 221.933 770.343 253.263C761.069 273.642 751.11 294.021 750.654 293.641C750.502 293.489 751.871 290.143 753.695 286.189C755.519 282.235 760.917 269.992 765.63 258.89C782.963 218.131 791.097 205.128 808.125 190.832C821.352 179.806 842.714 167.411 857.994 161.86C864.151 159.578 867.572 158.742 866.66 159.578ZM872.666 164.141C849.784 177.144 825.534 200.946 806.985 228.549C800.371 238.282 795.354 246.647 780.606 271.969C774.296 282.843 762.665 300.257 762.057 299.725C761.905 299.496 764.262 295.542 767.227 290.752C770.267 286.037 777.717 273.186 783.723 262.312C800.903 231.286 805.54 223.986 816.183 210.603C832.299 190.452 854.193 171.669 871.297 163.533C879.051 159.807 879.735 160.111 872.666 164.141ZM906.19 161.099C906.038 161.251 902.845 163.457 899.044 165.966C885.209 175.091 873.35 185.661 860.807 199.881C849.556 212.808 842.942 221.401 823.405 248.624C803.564 276.227 794.822 287.254 785.623 296.151C781.974 299.725 780.682 300.713 782.81 298.432C792.997 287.482 800.523 277.444 817.323 252.882C839.673 220.032 849.556 207.561 866.66 190.452C879.431 177.677 887.261 171.517 899.577 164.369C905.202 161.175 907.103 160.187 906.19 161.099ZM916.909 161.099C916.909 161.251 915.085 162.544 912.956 163.913C899.425 172.582 880.192 191.06 864.988 209.995C861.035 214.937 850.772 228.625 842.182 240.488C833.516 252.274 822.949 266.342 818.692 271.665C809.265 283.299 794.441 298.356 787.828 302.918C783.571 305.808 784.255 304.971 794.365 294.934C806.985 282.235 813.522 274.326 829.943 251.514C857.31 213.645 867.04 201.478 881.56 187.03C886.577 182.011 893.951 175.471 897.904 172.43C908.395 164.521 916.909 159.426 916.909 161.099ZM893.039 162.544C860.503 183 842.334 202.694 806.681 255.924C791.705 278.281 784.027 288.774 777.869 295.39L773.916 299.572L777.793 294.63C782.05 289.231 795.886 268.699 808.201 249.384C822.113 227.636 832.147 214.253 845.983 199.12C858.982 184.901 875.174 171.593 887.946 164.673C893.419 161.708 896.156 160.567 893.039 162.544ZM910.447 162.24C909.991 162.544 907.026 164.673 903.758 166.803C895.396 172.43 885.893 180.566 876.239 190.528C862.935 204.215 855.333 213.797 826.066 253.947C809.341 276.836 795.506 293.033 785.775 300.941C783.191 303.07 784.255 301.702 789.272 296.531C799.155 286.113 805.996 277.368 825.609 249.917C848.263 218.055 858.45 205.432 873.502 190.452C886.121 177.905 893.419 171.973 904.518 165.206C910.295 161.708 911.892 160.871 910.447 162.24ZM923.827 164.141C923.827 164.445 921.85 166.118 919.418 167.943C900.565 181.859 869.245 212.276 852.901 232.655C850.164 236.001 843.93 244.366 838.989 251.286C834.048 258.205 827.434 267.102 824.241 271.057C813.598 284.516 798.471 298.888 789.576 304.135C787.524 305.352 787.524 305.276 789.956 303.299C807.213 289.079 816.563 278.281 844.082 240.868C864.532 213.112 873.426 202.086 885.285 189.919C895.396 179.426 905.05 171.137 914.096 165.13C918.962 161.86 919.418 161.708 921.546 162.62C922.839 163.152 923.827 163.837 923.827 164.141ZM854.193 166.803C853.737 167.183 846.971 171.745 838.989 176.916C804.324 199.653 795.278 210.451 774.828 254.099C766.542 271.589 756.66 290.675 754.151 293.869C753.315 294.934 754.531 292.196 756.812 287.786C759.092 283.375 764.794 271.437 769.431 261.171C787.372 221.781 793.681 210.907 805.54 199.197C814.815 189.995 831.615 178.133 847.351 169.768C854.345 166.042 855.409 165.586 854.193 166.803ZM924.891 166.803C924.435 167.183 921.546 169.616 918.429 172.278C893.039 193.645 865.216 223.91 843.93 253.187C828.422 274.555 815.575 288.774 803.64 297.747C792.085 306.416 791.097 306.264 801.815 297.443C814.739 286.873 825.153 274.783 842.41 250.525C848.795 241.552 856.397 231.286 859.362 227.712C866.28 219.348 891.214 194.406 902.465 184.596C911.284 176.916 924.587 166.118 925.195 166.118C925.423 166.118 925.271 166.422 924.891 166.803ZM857.994 169.084C857.538 169.388 855.257 171.137 852.825 172.886C834.732 186.041 817.019 204.748 802.956 225.431C795.506 236.305 792.161 242.084 780.682 262.996C771.255 280.182 762.361 294.934 760.841 295.922C760.309 296.227 760.537 295.542 761.297 294.402C764.566 289.383 767.987 283.147 778.325 263.452C795.354 230.982 803.488 217.979 815.651 203.835C826.826 190.832 843.626 176.156 853.357 170.985C858.146 168.399 859.21 167.943 857.994 169.084ZM910.219 184.14C883.46 210.755 872.21 223.682 847.959 255.544C827.358 282.615 814.207 295.694 798.699 304.439C794.898 306.568 796.722 304.971 804.096 299.572C810.786 294.782 823.633 282.387 830.551 274.098C833.516 270.524 841.422 260.106 848.111 250.981C864.38 228.701 871.373 220.564 892.127 199.957C906.418 185.661 924.815 168.551 925.879 168.399C926.031 168.399 918.962 175.471 910.219 184.14ZM924.359 179.578C899.805 206.801 880.116 230.146 865.52 249.384C840.281 282.615 826.37 296.151 807.593 305.58C802.5 308.165 801.587 307.709 806.453 305.047C817.019 299.344 831.615 286.949 842.106 274.783C845.831 270.372 853.661 260.563 859.514 252.806C871.829 236.457 884.449 221.173 899.12 204.748C912.804 189.463 932.797 168.399 933.709 168.399C934.166 168.399 929.908 173.418 924.359 179.578ZM919.19 179.502C894.559 205.128 875.782 227.028 856.702 252.654C845.451 267.711 839.977 274.402 832.603 281.702C822.721 291.512 812.838 299.496 805.768 303.222C803.564 304.363 802.576 304.743 803.64 303.983C824.241 289.003 832.527 280.486 853.433 252.426C867.04 234.1 872.057 228.017 886.881 211.82C897.904 199.653 927.932 169.16 928.844 169.16C929.072 169.16 924.739 173.798 919.19 179.502ZM936.674 169.54C936.674 169.692 934.698 172.202 932.265 175.015C929.832 177.905 918.429 191.668 906.951 205.66C887.109 229.842 882.092 236.229 865.292 258.129C846.895 282.007 831.539 296.074 814.359 304.667C805.236 309.306 803.716 309.382 811.622 304.819C831.387 293.565 843.398 281.55 871.069 245.582C887.261 224.519 919.114 186.802 931.657 173.874C936.142 169.236 936.674 168.78 936.674 169.54ZM938.423 171.593C919.95 195.09 897.676 223.91 884.753 241.02C864.836 267.407 859.894 273.262 849.708 282.995C840.433 291.816 832.375 297.747 822.569 302.994C813.37 307.861 812.23 307.861 820.364 302.994C838.913 291.816 849.404 281.398 874.794 248.624C896.08 221.173 937.282 170.833 938.499 170.757C938.879 170.681 938.803 171.137 938.423 171.593ZM832.527 171.745C832.527 171.897 830.247 173.418 827.434 175.091C818.16 180.566 804.932 190.68 798.699 196.915C786.155 209.614 778.021 223.682 763.502 257.369C754.683 277.9 751.11 285.733 750.73 285.353C750.654 285.2 754.607 274.859 759.625 262.312C774.904 223.834 783.419 208.246 795.962 195.699C803.032 188.703 808.581 184.749 822.873 176.688C832.299 171.365 832.527 171.213 832.527 171.745ZM941.996 172.886C941.996 173.57 891.899 240.488 876.695 259.954C858.07 283.984 840.889 298.432 821.428 306.492C812.002 310.37 812.382 309.61 822.417 304.515C842.866 294.021 857.538 280.562 877.455 253.947C884.373 244.746 896.612 228.625 904.746 218.131C912.88 207.637 924.207 193.037 929.832 185.661C938.879 173.798 941.996 170.529 941.996 172.886ZM10.7555 190.832C22.0064 215.85 36.0701 241.4 50.6658 263.452C60.9285 278.965 68.5304 288.698 81.8339 303.146C101.675 324.666 119.692 338.582 141.889 349.456C154.128 355.464 164.999 359.19 178.683 362.079C187.577 364.056 189.554 364.132 206.506 364.208C222.242 364.208 226.119 363.98 234.557 362.459C254.854 358.809 276.748 351.281 297.501 340.939C321.98 328.773 340.376 314.933 364.247 290.904L374.509 280.562L367.287 288.85C338.78 321.625 321.144 336.453 294.385 350.065C238.814 378.276 188.185 380.938 141.889 358.125C89.2078 332.119 44.5082 274.783 7.33466 185.433C4.59796 178.893 2.39339 173.342 2.46941 173.114C2.46941 172.43 3.30563 174.103 10.7555 190.832ZM934.318 189.083C912.576 220.717 885.361 257.749 874.718 270.296C862.783 284.364 849.176 295.618 835.568 302.538C825.229 307.861 821.656 308.774 830.931 303.755C843.778 296.835 855.485 287.482 866.812 275.087C869.777 271.817 886.577 249.993 904.214 226.572C944.2 173.418 943.82 173.874 944.2 174.179C944.352 174.331 939.943 181.022 934.318 189.083ZM943.44 181.479C932.341 199.881 900.945 245.43 887.033 263.376C879.431 273.186 865.292 287.558 857.614 293.261C850.62 298.432 841.27 303.907 835.188 306.34C826.75 309.686 826.75 309.23 835.188 304.971C851.228 296.835 867.04 282.919 883.156 262.692C896.612 245.734 925.499 205.964 942.756 180.414C944.656 177.677 946.329 175.547 946.481 175.699C946.633 175.852 945.264 178.437 943.44 181.479ZM6.57447 193.874C12.1239 206.953 26.6436 236.001 34.3216 249.384C42.7598 264.061 58.0397 287.178 65.6417 296.607C74.1559 307.253 91.2603 325.503 98.7862 332.119C146.527 373.638 196.623 385.424 254.398 368.695C264.053 365.881 280.929 359.114 291.496 353.867C316.582 341.244 330.722 330.598 354.06 306.568C364.399 295.998 365.843 294.706 361.586 299.953C330.418 338.354 306.472 356.984 269.374 371.889C246.948 380.938 226.651 385.12 204.986 385.12C188.413 385.12 176.782 383.219 160.514 377.82C105.856 359.722 58.2678 308.317 19.4218 225.431C13.0361 211.667 2.39339 186.802 2.39339 185.433C2.39339 184.216 3.15359 185.813 6.57447 193.874ZM825.153 190.3C814.739 199.957 802.271 215.546 793.453 229.842C791.097 233.72 785.547 243.833 781.062 252.274C770.951 271.589 761.829 288.242 760.537 289.915C759.929 290.599 762.133 285.885 765.402 279.421C768.671 272.958 775.893 258.357 781.366 247.103C793.377 222.389 799.611 212.58 809.645 202.542C815.803 196.459 828.194 186.041 829.487 185.965C829.715 185.889 827.738 187.866 825.153 190.3ZM989.584 189.843L991.788 192.353L989.356 190.148C986.999 188.018 986.467 187.41 987.075 187.41C987.227 187.41 988.291 188.551 989.584 189.843ZM1013.45 220.869C1018.32 226.496 1030.1 240.64 1039.68 252.274C1062.56 280.182 1071.76 290.447 1085.37 303.755C1114.71 332.347 1140.86 345.806 1172.41 348.62C1191.34 350.293 1209.13 346.491 1224.41 337.67C1231.1 333.791 1243.49 321.473 1248.73 313.64C1250.79 310.523 1252.76 307.557 1253.14 307.177C1254.21 305.884 1251.4 312.195 1247.52 319.724C1237.71 338.962 1227.3 350.217 1213.01 357.06C1202.74 362.003 1196.59 363.296 1182.98 363.372C1169.9 363.448 1162.76 362.307 1150.82 358.429C1117.75 347.631 1090.46 323.602 1049.34 269.156C1017.03 226.42 1006.92 213.797 992.549 198.74C983.578 189.311 983.654 189.387 994.069 199.881C999.922 205.812 1008.66 215.241 1013.45 220.869ZM936.598 197.067C924.739 218.131 908.547 243.301 896.612 259.27C876.087 286.721 855.485 303.146 833.592 309.458C827.054 311.359 823.557 311.663 829.258 309.838C834.428 308.165 842.486 304.439 848.339 301.017C870.157 288.09 890.302 264.897 925.879 211.515C932.721 201.174 938.575 192.733 938.727 192.733C938.955 192.733 937.966 194.71 936.598 197.067ZM993.385 204.291L995.589 206.801L993.157 204.596C990.8 202.466 990.268 201.858 990.876 201.858C991.028 201.858 992.092 202.999 993.385 204.291ZM999.466 211.135L1001.67 213.645L999.238 211.439C996.882 209.31 996.35 208.702 996.958 208.702C997.11 208.702 998.174 209.842 999.466 211.135ZM487.398 226.648C515.146 230.83 536.963 240.868 556.956 258.738C565.623 266.418 572.388 273.794 591.469 296.531C612.375 321.473 624.69 333.031 638.145 340.559C644.227 343.981 655.326 347.631 661.939 348.544L667.185 349.152L663.004 349.304C652.893 349.532 637.385 343.525 626.058 335.084C616.023 327.632 608.802 320.256 590.101 298.432C580.294 286.949 568.207 273.566 563.266 268.699C545.173 250.601 526.929 239.271 506.783 233.568C475.083 224.595 447.412 225.887 424.15 237.446C419.209 239.879 415.18 241.78 415.18 241.704C415.18 241.628 417.764 239.955 420.805 237.978C439.43 226.42 461.172 222.694 487.398 226.648ZM490.439 232.199C512.713 236.761 534.455 247.407 551.863 262.16C560.225 269.232 567.675 277.216 583.791 296.531C618.228 337.594 633.736 348.62 662.243 352.346L667.945 353.106L660.419 352.726C651.449 352.27 643.771 350.369 635.941 346.795C621.041 339.875 608.726 329.001 586.756 303.375C567.675 281.17 561.137 274.098 552.395 266.266C528.373 244.898 501.766 234.176 469.914 233.264C455.774 232.807 446.12 233.948 434.945 237.294C428.179 239.347 417.46 244.366 411.455 248.32C408.338 250.373 408.186 250.449 410.238 248.624C414.039 245.354 424.226 239.271 430.232 236.761C436.313 234.252 444.751 231.895 452.049 230.83C459.499 229.613 482.153 230.45 490.439 232.199ZM1015.96 238.51C1019.46 243.225 1028.58 256 1036.26 266.874C1063.78 305.808 1078.3 324.362 1093.58 340.179C1116.76 363.904 1138.81 377.136 1162.45 381.394C1170.89 382.915 1188.76 382.763 1196.66 381.09C1215.13 377.136 1229.88 367.174 1240.14 351.661C1246.15 342.536 1251.02 332.423 1259.68 311.131C1267.89 290.98 1273.29 279.573 1278.38 271.893C1293.13 249.613 1315.33 235.621 1343.38 231.058C1352.12 229.613 1369.83 229.994 1378.12 231.819C1402.98 237.218 1421.68 251.438 1432.17 272.806C1435.89 280.41 1439.62 290.599 1439.01 291.284C1438.78 291.436 1438.18 290.143 1437.64 288.394C1436.2 283.375 1430.57 272.729 1426.85 267.635C1413.24 249.461 1395.6 239.575 1371.35 236.761C1358.05 235.241 1340.72 237.218 1326.65 241.856C1301.49 250.221 1281.2 268.547 1268.04 294.782C1263.48 303.907 1261.51 308.85 1254.44 328.773C1251.47 337.289 1247.52 347.707 1245.69 351.89C1234.59 377.06 1220.99 390.443 1200.84 395.842C1192.56 398.123 1174.24 398.275 1164.89 396.298C1158.27 394.853 1148.54 391.66 1142.46 388.998C1127.41 382.459 1107.41 366.262 1091.6 347.935C1080.43 335.008 1070.32 320.94 1044.7 282.463C1031.39 262.616 1017.94 242.693 1014.75 238.13C1011.55 233.644 1009.12 229.994 1009.27 229.994C1009.5 229.994 1012.54 233.872 1015.96 238.51ZM489.755 237.902C512.409 242.769 529.437 251.057 547.15 265.962C556.348 273.642 564.026 281.855 579.99 301.093C594.51 318.431 609.41 333.868 617.772 340.179C624.614 345.274 635.104 350.445 642.858 352.498C646.659 353.486 652.741 354.247 659.203 354.627L669.465 355.159L662.091 355.768C644.759 357.289 628.795 351.966 613.439 339.571C605.609 333.259 594.738 321.853 579.078 303.375C556.804 277.216 542.285 263.68 527.233 255.012C492.796 235.165 449.389 232.275 418.601 247.636C415.256 249.308 411.607 251.362 410.467 252.198C409.25 253.035 408.338 253.491 408.338 253.263C408.338 252.502 417.08 246.951 422.554 244.138C429.471 240.716 437.606 237.902 445.36 236.457C454.862 234.708 478.352 235.393 489.755 237.902ZM1379.11 240.564C1405.33 246.495 1424.11 262.692 1433.77 287.786C1436.58 295.01 1437.57 299.496 1435.13 293.793C1429.43 280.638 1423.58 272.197 1413.47 262.616C1402.98 252.578 1389.98 246.039 1374.55 242.921C1363.9 240.716 1344.9 241.02 1335.4 243.605C1319.89 247.712 1310.23 253.339 1298 265.201C1284.46 278.357 1274.35 293.261 1266.6 311.511C1264.62 316.226 1259.91 329.153 1256.11 340.255C1243.26 378.048 1238.4 387.782 1226.16 399.72C1216.81 408.997 1207 413.18 1190.81 414.853C1175.53 416.526 1157.74 413.256 1143.14 406.108C1122.01 395.842 1104.53 379.493 1081.72 348.62C1072.07 335.464 1061.73 319.724 1042.49 288.774C1032.91 273.414 1023.49 258.281 1021.59 255.24C1019.61 252.274 1018.24 249.765 1018.47 249.765C1018.62 249.765 1025.92 260.487 1034.51 273.49C1074.12 333.563 1092.59 356.908 1114.1 374.398C1137.9 393.713 1162.98 402.23 1188.6 399.568C1199.25 398.504 1205.02 396.907 1213.01 393.105C1232.39 383.675 1242.96 367.934 1258.62 325.047C1262.72 313.944 1267.82 301.017 1270.1 296.227C1286.06 262.54 1312.29 243.605 1349.46 238.815C1355.16 238.13 1372.8 239.119 1379.11 240.564ZM486.182 242.845C509.52 247.559 528.145 256.913 546.314 273.11C555.436 281.322 563.114 289.687 578.698 308.317C598.007 331.586 608.042 341.092 620.889 348.696C632.216 355.311 641.414 357.897 654.261 358.049C658.899 358.049 664.676 357.897 667.185 357.593L671.746 357.136L667.565 358.201C657.454 360.863 641.87 360.33 632.064 356.908C615.643 351.281 604.317 341.624 577.558 310.599C549.506 278.128 535.367 265.429 516.666 256.076C500.398 247.94 477.516 242.921 456.306 242.921C441.254 242.921 427.115 246.039 415.788 251.742C413.735 252.806 412.139 253.415 412.139 253.187C412.139 252.35 424.302 246.799 430.308 244.898C441.711 241.248 446.956 240.64 463.072 240.944C474.399 241.172 479.872 241.628 486.182 242.845ZM722.147 322.537C721.387 322.689 720.17 322.689 719.486 322.537C718.726 322.309 719.334 322.157 720.779 322.157C722.223 322.157 722.831 322.309 722.147 322.537ZM673.494 352.194C672.734 352.346 671.518 352.346 670.834 352.194C670.073 351.966 670.682 351.814 672.126 351.814C673.57 351.814 674.178 351.966 673.494 352.194Z" fill="#101010"/>
<path d="M1116.99 17.6076C1114.33 18.6722 1112.36 19.6608 1112.51 19.8128C1112.74 20.117 1122.24 16.467 1122.85 15.8586C1123.61 15.0982 1121.4 15.7826 1116.99 17.6076Z" fill="#101010"/>
<path d="M1107.72 21.6374C1106.27 22.474 1105.44 23.0825 1105.82 23.0825C1106.27 23.0825 1107.79 22.474 1109.24 21.6374C1110.68 20.8007 1111.6 20.1922 1111.14 20.1922C1110.76 20.1922 1109.16 20.8007 1107.72 21.6374Z" fill="#101010"/>
<path d="M297.578 140.339C294.917 142.013 294.081 143.154 296.437 141.861C298.11 140.872 300.846 138.818 300.39 138.742C300.162 138.742 298.87 139.503 297.578 140.339Z" fill="#101010"/>
<path d="M289.215 145.662C286.555 147.336 285.718 148.477 288.075 147.184C289.747 146.195 292.484 144.141 292.028 144.065C291.8 144.065 290.508 144.826 289.215 145.662Z" fill="#101010"/>
<path d="M272.111 155.928C269.222 157.449 269.374 158.058 272.263 156.613C273.555 155.928 274.544 155.243 274.544 155.091C274.544 154.559 274.468 154.635 272.111 155.928Z" fill="#101010"/>
<path d="M261.62 161.556C259.34 162.772 257.743 163.761 258.047 163.837C258.808 163.837 266.181 160.111 266.181 159.655C266.181 159.122 266.258 159.122 261.62 161.556Z" fill="#101010"/>
<path d="M252.498 165.738C251.434 166.346 250.977 166.802 251.357 166.802C251.814 166.802 252.954 166.346 254.018 165.738C255.082 165.129 255.615 164.673 255.158 164.673C254.778 164.673 253.562 165.129 252.498 165.738Z" fill="#101010"/>
</svg>
