<svg width="80" height="72" viewBox="0 0 80 72" fill="none" xmlns="http://www.w3.org/2000/svg">
<path d="M31.5 1.9C27.8 4.1 27.9 4 12.3 30C0.5 49.6 0 50.7 0 56C0 66.1 6 72 16.1 72C24 72 27.3 69.5 34 58.3C37 53.2 39.7 49.1 40 49.1C40.3 49.1 43 53.2 46 58.3C52.7 69.5 56 72 63.9 72C74.1 72 80 66.1 80 55.9C80 50.4 79.6 49.6 66.3 27.4C50.7 1.5 49.3 0 40.1 0C36.4 0 33.5 0.599998 31.5 1.9ZM44.2 10.2C47.3 12.6 71 53.4 71 56.3C71 61.6 64 65 59.8 61.8C56.7 59.4 33 18.6 33 15.7C33 10.4 40 7 44.2 10.2ZM30.4 32.2C34.2 38.6 34.4 40.6 31.5 44.4C30 46.3 30 46.3 27.8 44.3C24.8 41.6 21.6 40 19.1 40C17.3 40 17.5 39.3 21.3 33C23.6 29.1 25.8 26 26.1 26C26.5 26 28.4 28.8 30.4 32.2ZM21.2 50.7C23.5 52.7 23.6 58.7 21.3 61.2C19.3 63.5 13.3 63.6 10.8 61.3C8.5 59.3 8.4 53.3 10.7 50.8C12.7 48.5 18.7 48.4 21.2 50.7Z" fill="white"/>
</svg>
