<svg width="76" height="72" viewBox="0 0 76 72" fill="none" xmlns="http://www.w3.org/2000/svg">
<path d="M61.6 3.8C59.9 7.6 59.8 7.6 41.2 13.8C23.6 19.6 21.9 20 13.2 20C0.3 20 0 20.3 0 36C0 50.9 0.7 52 10 52H16V62V72H20H24V62.5C24 57.3 24.3 53 24.7 53C25.1 53 33.2 55.6 42.7 58.7C59.7 64.4 59.9 64.4 61.6 68.2C63.2 71.8 63.6 72 67.7 72H72V58C72 45.3 72.2 43.8 74 42C75.3 40.7 76 38.7 76 36C76 33.3 75.3 31.3 74 30C72.2 28.2 72 26.7 72 14V0H67.7C63.6 0 63.2 0.199997 61.6 3.8ZM64 36.1C64 51.8 63.7 56.1 62.8 55.7C62.1 55.5 54.9 53.1 46.8 50.4L32 45.6V36V26.5L47.3 21.3C55.6 18.5 62.8 16.1 63.3 16.1C63.7 16 64 25 64 36.1ZM24 36V44H16H8V36V28H16H24V36Z" fill="white"/>
</svg>
