<svg width="78" height="89" viewBox="0 0 78 89" fill="none" xmlns="http://www.w3.org/2000/svg">
<path d="M23.093 0.320467C21.2797 0.8538 19.733 2.56047 19.733 4.10714C19.733 4.90714 19.413 5.0138 17.4397 4.74714C13.013 4.10714 9.54636 7.09381 9.17302 11.7338C8.95969 14.2405 9.11969 14.9871 10.293 16.7471C11.9464 19.2005 14.5597 20.2671 17.653 19.7871C20.533 19.3071 21.493 20.0005 24.053 24.2672C25.2797 26.3472 26.453 28.0005 26.7197 28.0005C26.933 28.0005 27.4664 27.0405 27.7864 25.8138C28.533 23.4138 30.933 21.0671 32.693 21.0671C33.333 21.0671 34.7197 21.5471 35.733 22.1338L37.5997 23.2538L36.3197 22.1338C33.5997 19.7871 30.613 20.1071 27.893 22.9872L26.1864 24.8538L24.4797 21.8672C23.573 20.2671 22.3997 18.6671 21.9197 18.4005C21.3864 18.1338 19.6797 18.0271 18.0797 18.1871C15.7864 18.4005 14.8264 18.2405 13.4397 17.3871C9.22636 14.7205 9.86636 8.74714 14.6664 6.6138C17.2264 5.4938 18.9864 5.8138 21.2264 7.84047C22.5597 9.12047 22.8264 8.48047 21.5997 6.88047C19.253 3.7338 23.3064 -0.266201 27.3597 1.28047C29.5997 2.1338 30.613 4.16047 30.1864 6.98714C30.0264 8.53381 30.0797 9.28047 30.3997 9.06714C30.7197 8.90714 30.933 8.32047 30.933 7.78714C30.933 4.96047 36.7997 3.94714 39.1997 6.40047C40.5864 7.7338 40.9597 9.54714 39.9997 10.1338C39.733 10.2938 39.4664 10.7205 39.4664 11.0938C39.4664 11.4138 39.8397 11.2005 40.2664 10.6138C41.4397 9.06714 41.2264 6.98714 39.6797 5.54714C38.5597 4.48047 37.7597 4.26714 34.8264 4.2138C31.7864 4.16047 31.253 4.00047 30.7197 2.98713C29.4397 0.640467 26.1864 -0.532867 23.093 0.320467Z" fill="white"/>
<path d="M46.8796 7.68053C44.373 8.48053 43.3596 9.28053 42.6663 10.9339C40.1063 17.1739 51.7863 25.1739 60.6397 23.2005C63.8397 22.5072 66.133 20.2672 66.0797 17.9739C66.0797 16.6405 66.0263 16.6405 65.4397 18.3472C64.4263 21.1739 62.6663 22.1872 58.6663 22.1872C53.8663 22.2405 49.653 20.5872 46.293 17.3339C43.9463 15.0405 43.6796 14.6139 43.8396 12.8005C44.1063 9.81386 45.9196 8.64053 50.5063 8.5872C52.4796 8.53386 54.8796 8.69386 55.733 8.9072L57.333 9.28053L55.6263 8.53386C53.493 7.57386 48.693 7.09386 46.8796 7.68053Z" fill="white"/>
<path d="M46.5066 24.8002C46.0266 25.6535 45.28 25.8669 43.2533 25.8669C41.8133 25.8669 40.4266 26.1869 40.1066 26.5069C39.68 27.0402 40.2133 27.2002 42.4533 27.2002C44.64 27.2002 45.5466 26.9335 46.4533 26.0802C47.0933 25.4402 47.52 24.6402 47.4133 24.3202C47.3066 24.0002 46.88 24.2135 46.5066 24.8002Z" fill="white"/>
<path d="M32.7998 25.8668C32.3731 26.5601 33.0131 27.5734 33.6531 27.2001C34.2931 26.7734 34.2931 25.3334 33.6531 25.3334C33.3331 25.3334 32.9598 25.5468 32.7998 25.8668Z" fill="white"/>
<path d="M50.0265 26.2938C49.7598 27.5738 49.9198 32.2671 50.2931 32.2671C50.5065 32.2671 50.6665 31.0404 50.6665 29.5471C50.6665 27.1471 50.7731 26.8804 51.4665 27.4671C52.1598 28.0538 52.2131 28.0004 51.9465 27.3071C51.6265 26.4004 50.1865 25.6538 50.0265 26.2938Z" fill="white"/>
<path d="M34.2931 28.2137C31.7864 30.2937 30.6131 30.7204 29.1198 30.1337C27.5731 29.6004 27.1998 30.4537 28.3731 31.6271C29.7598 33.0137 33.0131 32.1071 34.8264 29.7604C35.5198 28.9071 36.3731 28.5337 37.7598 28.5337C39.5731 28.5337 39.6264 28.4804 38.6131 27.7337C37.1731 26.6137 36.0531 26.7737 34.2931 28.2137Z" fill="white"/>
<path d="M54.7733 29.0668C53.1199 30.3468 52.9599 30.4001 52.6399 29.1734C52.4799 28.6934 52.3733 29.0668 52.3199 30.0801L52.2666 31.9468L53.7599 30.5068C54.5599 29.7601 55.7866 28.9068 56.5333 28.5868C57.3333 28.2668 57.5466 28.0534 57.0133 28.0534C56.5333 28.0001 55.5199 28.4801 54.7733 29.0668Z" fill="white"/>
<path d="M22.72 32.8536C21.12 34.7203 21.28 36.6936 23.1467 38.3469C24.1067 39.1469 24.7467 39.2536 27.4667 38.9336C31.4133 38.4536 33.7067 38.4536 36.8 38.9336C38.7733 39.2536 39.4133 39.0936 40.64 38.1869C41.3867 37.5469 42.1867 36.3736 42.4 35.5203C42.56 34.6669 43.0933 33.6536 43.52 33.2803C44.7467 32.2669 44.3733 31.6269 42.9867 32.5336C42.2933 33.0136 41.5467 33.9736 41.3867 34.6669C40.9067 36.5869 38.7733 37.7603 36.5333 37.3869C35.52 37.2269 33.8133 36.9069 32.7467 36.7469C31.7333 36.5336 29.8133 36.6936 28.5333 37.0669C26.4533 37.6536 25.9733 37.6003 24.8 36.8536C23.36 35.8936 23.04 34.0269 24 32.2136C24.8533 30.7203 24.2667 30.9869 22.72 32.8536Z" fill="white"/>
<path d="M60.5863 32.6937C59.9996 32.8003 58.3463 33.7603 56.9063 34.7203C54.133 36.6403 53.333 36.6937 50.6663 35.0937C49.5463 34.4537 49.5996 34.5603 50.9863 35.8403L52.5863 37.387L50.773 40.8537C49.653 42.987 49.4396 43.6803 50.1863 42.667C51.6796 40.6403 57.333 35.147 59.0396 34.027C59.733 33.547 61.013 33.1737 61.9196 33.227C62.773 33.227 63.4663 33.067 63.4663 32.8537C63.4663 32.4803 62.1863 32.3737 60.5863 32.6937Z" fill="white"/>
<path d="M59.8399 50.1868C59.5198 50.7201 59.1998 50.9334 59.1998 50.6668C59.1998 50.3468 58.9865 50.4534 58.7198 50.8801C57.7065 52.4801 60.8532 53.8668 62.2932 52.4268C63.0932 51.6268 63.0932 50.9334 62.3465 50.9334C61.9732 50.9334 61.4399 50.5601 61.0665 50.0268C60.4799 49.2268 60.3732 49.2268 59.8399 50.1868Z" fill="white"/>
<path d="M5.38649 53.1738C2.07982 54.8804 0.799824 56.8004 0.853157 59.8938C0.90649 65.6538 5.70649 68.4271 13.4932 67.1471L15.4665 66.7738V62.8804V58.9338H12.5332C9.65316 58.9338 9.59983 58.9338 9.59983 60.5338C9.59983 61.4938 9.8665 62.0804 10.2398 62.0271C10.5598 61.9204 10.9865 62.2938 11.0932 62.7738C11.2532 63.5204 10.9332 63.7338 9.65316 63.7338C6.23983 63.7338 4.58649 59.4671 6.93316 56.9071C8.2665 55.5204 10.0265 55.2538 13.4932 55.9471C14.7732 56.2138 14.9332 56.1071 14.9332 54.6671C14.9332 52.7471 14.5065 52.4804 10.7732 52.1604C8.31983 51.9471 7.3065 52.1604 5.38649 53.1738Z" fill="white"/>
<path d="M18.5064 52.3735C17.6531 52.5868 17.5998 53.2802 17.7064 59.8935L17.8664 67.2002H20.2664H22.6664L22.8264 59.8402C22.9331 54.1868 22.8264 52.5335 22.2931 52.5335C21.9198 52.5335 21.1198 52.4268 20.5331 52.3202C19.9464 52.2135 19.0398 52.2135 18.5064 52.3735Z" fill="white"/>
<path d="M25.8129 52.4801C25.7063 52.5868 25.5996 56.0535 25.5996 60.1068V67.4668H27.9996H30.3996V63.7335C30.3996 61.6535 30.5596 60.0001 30.7729 60.0001C30.9863 60.0001 32.7463 61.6535 34.7196 63.6801C37.973 67.0401 38.3996 67.3068 40.3196 67.2535L42.3996 67.1468L42.5596 60.0001C42.613 56.1068 42.5063 52.7468 42.293 52.5335C42.0796 52.3201 40.7996 52.2668 39.5196 52.4268L37.1729 52.6401L37.4929 56.0535C37.5996 57.9201 37.5996 59.4668 37.3863 59.4668C37.1729 59.4668 35.5196 57.9201 33.6529 56.0535C30.8263 53.2268 29.9196 52.5868 28.1596 52.4268C27.0396 52.3201 25.9729 52.3201 25.8129 52.4801Z" fill="white"/>
<path d="M49.3334 52.3205C47.9467 52.6405 45.7067 54.5605 44.9067 56.1072C43.8401 58.0805 44.1067 62.5605 45.3867 64.3739C48.4801 68.6939 56.0001 68.3739 59.0401 63.7872C61.2801 60.4805 60.2134 55.5205 56.9068 53.3339C55.5734 52.4805 51.2534 51.8939 49.3334 52.3205ZM53.7068 56.6939C55.4134 57.7605 55.4134 61.7072 53.7068 62.7739C51.6801 64.0539 49.0667 62.2405 49.0667 59.6272C49.0667 57.3339 51.8934 55.5205 53.7068 56.6939Z" fill="white"/>
<path d="M63.5734 53.3337C62.2934 54.4003 61.8667 55.2003 61.8667 56.5337C61.8667 58.2937 62.9334 59.5203 66.72 62.187L67.9467 63.0403L66.7734 63.6803C65.8667 64.1603 65.2267 64.107 63.7334 63.5203L61.8667 62.7203V64.5337C61.8667 66.7203 62.1867 66.9337 65.8667 67.307C69.2267 67.6803 71.1467 66.7203 72.0534 64.3737C72.8 62.4003 71.52 60.0537 68.9067 58.667C67.84 58.0803 66.88 57.1737 66.7734 56.587C66.6134 55.7337 66.8267 55.627 68.3734 55.8403C69.3334 56.0003 70.56 56.267 71.04 56.5337C71.84 56.8537 72 56.6403 71.8934 55.5203C71.7334 53.547 70.3467 52.4803 67.5734 52.1603C65.6534 51.947 65.0134 52.107 63.5734 53.3337Z" fill="white"/>
<path d="M2.02628 73.6537C1.75961 73.867 1.59961 77.2803 1.59961 81.2804V88.5337L4.26628 88.3737L6.93295 88.1604V85.547V82.9337H9.38628C12.373 82.9337 13.5996 82.2937 14.6663 80.2137C15.733 78.2403 15.0396 75.5737 13.2263 74.4537C11.893 73.6537 2.66628 72.9603 2.02628 73.6537ZM10.3463 77.1737C11.1463 78.507 10.1863 79.947 8.31961 80.1604C7.03961 80.3204 6.93295 80.2137 6.93295 78.1337C6.93295 76.0537 7.03961 75.947 8.31961 76.107C9.11961 76.2137 10.0263 76.6937 10.3463 77.1737Z" fill="white"/>
<path d="M17.4397 73.6537C17.2264 73.867 17.0664 77.2803 17.0664 81.2804V88.5337L19.7331 88.3737L22.4531 88.1604L22.2931 80.907L22.1331 73.6003L19.9997 73.4403C18.7731 73.3337 17.6531 73.4403 17.4397 73.6537Z" fill="white"/>
<path d="M24.9065 73.6535C24.6932 73.8668 24.5332 74.7202 24.5332 75.5202C24.5332 77.0135 24.5332 77.0135 28.5332 77.1735L32.5865 77.3335L28.8532 82.7202C26.7732 85.7068 25.1732 88.2135 25.2799 88.3202C25.4399 88.4268 28.9065 88.4802 33.0665 88.3735L40.5865 88.2135L40.4265 86.7735C40.2666 85.3868 40.1066 85.3335 36.6399 85.0668L33.0665 84.8002L35.8932 80.5335C37.4932 78.1868 39.1465 75.6268 39.6799 74.8268L40.5865 73.4402L32.9599 73.3868C28.7465 73.3335 25.1199 73.4402 24.9065 73.6535Z" fill="white"/>
<path d="M42.2401 75.0404L42.4001 76.8004L46.0267 76.9604C48.0001 77.0671 49.6001 77.2271 49.6001 77.3871C49.6001 77.5471 48.2134 79.7337 46.5067 82.2938C44.8001 84.8538 43.2001 87.2538 42.9867 87.5738C42.6667 88.1071 44.2667 88.2671 50.0801 88.2671H57.6001V86.6671V85.0671H54.1334C52.2134 85.0671 50.6668 84.9604 50.6668 84.8004C50.6668 84.6404 52.1068 82.3471 53.8668 79.6804C55.6801 77.0671 57.2268 74.5604 57.3868 74.1337C57.6534 73.4404 56.5868 73.3337 49.8668 73.3337H42.0801L42.2401 75.0404Z" fill="white"/>
<path d="M65.2265 73.8138C64.9065 73.9738 63.9998 75.6805 63.1998 77.6005C62.3998 79.5205 61.2265 82.1338 60.5331 83.4672C59.8931 84.8005 59.1465 86.4005 58.9865 87.0405C58.6131 88.2138 58.7731 88.2672 61.0131 88.2672C62.9332 88.2672 63.4665 88.0538 63.7332 87.2005C64.0532 86.2938 64.5332 86.1338 67.7332 86.1338C70.8798 86.1338 71.4665 86.2938 71.7332 87.1472C71.9465 87.9472 72.6398 88.2138 74.6665 88.3738C76.3198 88.4805 77.2798 88.3205 77.1198 88.0005C75.5198 84.3738 70.7732 74.0805 70.5598 73.8672C70.2398 73.4938 65.8132 73.3872 65.2265 73.8138ZM69.0132 80.4272C69.4932 81.6538 69.8665 82.8805 69.8665 83.0938C69.8665 83.3072 68.9065 83.4672 67.7332 83.4672C66.5598 83.4672 65.5998 83.3072 65.5998 83.0938C65.5998 82.2405 67.3598 78.1338 67.7332 78.1338C67.9465 78.1338 68.5332 79.1472 69.0132 80.4272Z" fill="white"/>
</svg>
