<svg width="54" height="93" viewBox="0 0 54 93" fill="none" xmlns="http://www.w3.org/2000/svg">
<path d="M6.7869 1.46706C6.73356 2.64039 6.9469 4.34706 7.21356 5.30706C8.0669 8.2404 7.05356 7.81373 6.09356 4.82706C5.13356 1.78706 4.7069 3.22706 5.61356 6.42706C6.04023 7.9204 5.61356 8.82707 4.97356 7.70707C4.7069 7.22706 5.0269 8.4004 5.5069 9.57373C5.8269 10.4271 5.77356 10.4271 4.97356 9.78707C4.33356 9.25373 4.06689 9.25373 4.06689 9.73373C4.06689 11.1204 7.32023 18.3737 9.08023 20.9337C10.0936 22.4271 11.5869 25.6804 12.3336 28.1337C13.7736 32.9338 15.8002 36.0271 16.8669 35.0138C17.2936 34.5871 17.0802 33.7338 16.1202 31.8137C12.9736 25.4671 12.5469 20.6671 14.7336 16.5071C16.1736 13.8937 16.0669 13.2004 14.0936 10.0537C13.1336 8.61373 12.2269 6.3204 12.0136 4.98706L11.6936 2.53373L11.5869 4.77373C11.4802 8.13373 10.6269 7.54706 10.0936 3.70706L9.61357 0.400391L9.13357 3.6004L8.7069 6.8004L7.7469 3.06706C6.89356 -0.346275 6.84023 -0.452942 6.7869 1.46706Z" fill="white"/>
<path d="M15.7467 17.5739C15.2667 18.1072 15 19.8139 15 22.2139C15 25.4672 15.2667 26.5872 16.92 30.0539C18.7867 33.9472 18.84 34.2139 18.0934 35.7606C17.08 37.8406 15.6934 38.7472 11.8534 39.8672C10.2 40.3472 8.8667 40.9339 8.8667 41.0939C8.8667 41.3072 9.56003 41.7872 10.4667 42.1606C12.1734 42.9606 13.24 42.7473 16.5467 41.0939C17.72 40.5072 20.8134 39.6539 23.48 39.2272C26.0934 38.8006 29.4 38.0006 30.7334 37.4672C32.0667 36.8806 35.5334 35.8139 38.4667 35.1206C44.7067 33.5739 47.9601 32.2939 47.5334 31.6006C47.3734 31.3339 47.4801 31.0139 47.8001 30.8006C48.0667 30.6406 48.3334 30.2139 48.3334 29.8939C48.3334 29.5739 47.9067 29.6272 47.4267 30.1072C44.6001 32.6139 37.5601 34.8006 32.4934 34.8006C29.08 34.8006 28.0667 34.2139 28.0667 32.2939C28.0667 31.3339 27.7467 31.0672 26.6267 31.0672C23.8534 31.0672 18.36 23.6006 17.56 18.6406C17.24 16.4539 16.8134 16.2406 15.7467 17.5739Z" fill="white"/>
<path d="M29.6668 31.867C28.7068 33.0404 29.7201 33.947 31.3201 33.4137C32.0135 33.2004 32.7601 33.0404 33.0268 33.0937C34.0935 33.3604 33.2401 32.027 32.0135 31.6004C30.3068 30.9604 30.4668 30.907 29.6668 31.867Z" fill="white"/>
<path d="M0.866731 71.5473C-0.41327 73.9473 1.02673 76.454 3.58673 76.3473C4.6534 76.294 4.60007 76.2406 3.16007 75.814C0.0133974 74.9073 0.226731 71.3873 3.42673 70.9073C4.76007 70.694 4.70673 70.694 3.16007 70.5873C1.9334 70.534 1.2934 70.854 0.866731 71.5473Z" fill="white"/>
<path d="M38.3066 71.9205C37.9333 72.3472 37.88 72.6672 38.1466 72.6672C38.4133 72.6672 38.7333 73.4672 38.84 74.3739C38.9466 75.6539 39.32 76.1872 40.0666 76.2939C41.0266 76.4005 41.0266 76.4005 40.2266 75.8672C39.16 75.2272 38.9466 72.8805 39.8533 72.5605C40.28 72.4005 40.2266 72.1872 39.7466 71.7605C39.16 71.3339 38.84 71.3872 38.3066 71.9205Z" fill="white"/>
<path d="M5.88019 73.4674C5.29353 75.8674 7.85353 77.4674 9.4002 75.6541C10.1469 74.6941 9.93353 72.5608 8.97353 72.2408C8.38686 72.0808 8.38686 72.2408 8.9202 73.0941C9.77353 74.4274 9.18686 75.8674 7.85353 75.8674C6.36019 75.8674 5.77353 73.7341 7.05353 72.8274C7.90686 72.1874 7.90686 72.1341 7.10686 72.1341C6.62686 72.1341 6.09353 72.7208 5.88019 73.4674Z" fill="white"/>
<path d="M11.587 74.4806C11.6937 76.2939 11.747 76.4006 11.907 75.0672C12.067 74.1606 12.387 73.2006 12.6537 72.8806C12.9203 72.5072 12.8137 72.2939 12.3337 72.2939C11.747 72.2939 11.5337 72.8806 11.587 74.4806Z" fill="white"/>
<path d="M14.0404 72.7203C14.3604 73.147 14.7337 74.1603 14.8937 75.067C15.1071 76.2937 15.1071 76.1337 15.0537 74.587C15.0004 73.2537 14.7337 72.4003 14.2004 72.2403C13.5604 72.027 13.5071 72.1337 14.0404 72.7203Z" fill="white"/>
<path d="M16.5468 72.774C16.3334 73.1473 16.6534 73.734 17.2934 74.1607C18.7334 75.0673 18.7868 75.7073 17.5601 76.0273C16.6534 76.2407 16.6534 76.294 17.5601 76.3473C18.8934 76.4007 19.3734 74.8007 18.3068 74.0007C17.1334 73.1473 17.1868 72.8273 18.3601 72.5073C19.0534 72.294 19.0001 72.2407 18.0934 72.1873C17.4534 72.1873 16.7601 72.4007 16.5468 72.774Z" fill="white"/>
<path d="M20.4935 73.467C19.7468 75.1204 20.7068 76.4004 22.6802 76.347C23.8002 76.2937 23.8535 76.2404 23.0002 76.027C22.4135 75.867 21.6135 75.4937 21.1868 75.1204C20.5468 74.6404 20.8135 74.4804 22.4135 74.267C24.2802 74.0004 24.3335 73.947 23.5335 72.9337C22.8935 72.0804 22.7868 72.027 23.0535 72.7737C23.3202 73.5204 23.1068 73.7337 22.2002 73.7337C21.3468 73.7337 21.1335 73.5204 21.3468 72.9337C21.8268 71.6004 21.1335 72.027 20.4935 73.467Z" fill="white"/>
<path d="M25.4533 74.374C25.56 76.1874 25.6133 76.3474 25.7733 75.0674C25.88 74.1607 26.4133 73.1474 26.8933 72.774C27.64 72.1874 27.5867 72.134 26.5733 72.134C25.56 72.134 25.4 72.4007 25.4533 74.374Z" fill="white"/>
<path d="M29.3468 74.107C30.2534 76.7203 30.9468 76.827 31.6934 74.427C32.4401 71.9736 32.1201 71.4936 31.3201 73.8403L30.6801 75.6003L29.9334 73.8403C28.9201 71.4936 28.4934 71.6536 29.3468 74.107Z" fill="white"/>
<path d="M34.8933 72.5073C35.5333 72.614 36.0666 72.934 36.0666 73.2007C36.0666 73.4673 35.5333 73.734 34.8933 73.8407C33.5066 74.0007 33.1333 76.0807 34.4666 76.1873C35 76.2407 35 76.134 34.5733 76.0273C33.6666 75.7073 34.04 74.5873 35.16 74.374C35.8 74.2673 36.0666 74.534 36.0666 75.2807C36.0666 76.614 36.92 76.774 37.0266 75.4407C37.1333 73.094 36.6 72.134 35.1066 72.1873C33.88 72.294 33.8266 72.294 34.8933 72.5073Z" fill="white"/>
<path d="M42.0938 74.2675C42.0938 75.6008 42.2004 76.1341 42.3071 75.4408C42.4138 74.8008 42.4138 73.7341 42.3071 73.0408C42.2004 72.4008 42.0938 72.9341 42.0938 74.2675Z" fill="white"/>
<path d="M44.4402 72.5074C44.2269 72.6674 44.0669 73.5208 44.0669 74.3208C44.0669 75.4941 44.3869 75.9208 45.4002 76.1874C47.6936 76.7741 49.2936 74.3741 47.6936 72.7741C47.0002 72.0808 45.0269 71.9208 44.4402 72.5074ZM47.5336 73.2008C48.1202 74.1608 47.2136 75.8674 46.1469 75.8674C44.9736 75.8674 44.3336 74.6941 44.8136 73.4674C45.1336 72.5608 47.0536 72.4008 47.5336 73.2008Z" fill="white"/>
<path d="M49.88 73.3071C49.88 74.0004 49.7734 74.9604 49.6667 75.4404C49.56 75.9737 49.72 76.4004 49.9867 76.4004C50.2534 76.4004 50.4667 75.5471 50.4667 74.5337C50.4667 73.0404 50.68 72.6671 51.5334 72.6671C52.3867 72.6671 52.6 73.0404 52.6 74.5337C52.6 75.5471 52.8134 76.4004 53.1334 76.4004C53.56 76.4004 53.56 75.1737 53.1867 72.5071C53.1867 72.2937 52.44 72.1337 51.5334 72.1337C50.2534 72.1337 49.9334 72.3471 49.88 73.3071Z" fill="white"/>
<path d="M22.6802 79.7074C22.4669 84.3474 22.7869 91.6007 23.2135 91.7607C23.5869 91.8674 23.8002 89.7874 23.8002 85.5207C23.8002 81.5741 23.5869 79.0674 23.2669 79.0674C23.0002 79.0674 22.7335 79.3874 22.6802 79.7074Z" fill="white"/>
<path d="M0.333496 85.7338C0.333496 90.8539 0.493496 91.8672 1.1335 91.8672C1.7735 91.8672 1.9335 91.1739 1.9335 88.9339V85.9472L5.02683 86.1072L8.06684 86.2672L8.22684 89.0405C8.3335 90.8005 8.6535 91.8672 9.02684 91.8672C9.50684 91.8672 9.6135 90.2139 9.50684 85.7338C9.40017 82.3738 9.1335 79.6005 8.8135 79.6005C8.54684 79.6005 8.3335 80.7738 8.3335 82.2672V84.9338H5.1335H1.9335V82.2672C1.9335 80.2405 1.72016 79.6005 1.1335 79.6005C0.493496 79.6005 0.333496 80.6138 0.333496 85.7338Z" fill="white"/>
<path d="M28.7603 80.5072C28.3869 80.6672 28.0669 81.2005 28.0669 81.7872C28.0669 82.4272 27.6936 82.8005 27.0003 82.8005C26.4136 82.8005 25.9336 83.0138 25.9336 83.3338C25.9336 83.6005 26.4136 83.8672 27.0003 83.8672C27.9069 83.8672 28.0669 84.2405 28.0669 86.4805C28.0669 90.4272 28.7603 91.8672 30.7336 91.8672C32.6003 91.8672 32.9203 90.9605 31.1603 90.6939C30.0403 90.5339 29.9336 90.2139 29.7736 87.1739C29.6136 83.9205 29.6669 83.8672 31.0003 83.8672C31.7469 83.8672 32.3336 83.6005 32.3336 83.3338C32.3336 83.0138 31.7469 82.8005 31.0536 82.8005C30.0936 82.8005 29.6669 82.4805 29.5603 81.5738C29.4536 80.8272 29.1336 80.4005 28.7603 80.5072Z" fill="white"/>
<path d="M13.8267 83.174C12.44 83.7073 13.1867 84.454 14.7333 84.134C16.4933 83.7606 17.9333 84.5073 17.9333 85.7873C17.9333 86.2673 17.2933 86.534 16.1733 86.534C12.9733 86.534 10.84 89.3606 12.7067 91.2273C13.56 92.0806 16.44 92.0273 17.3467 91.2273C17.9333 90.6406 18.0933 90.6406 18.3067 91.174C18.9467 92.934 19.5333 91.5473 19.5333 88.4006C19.5333 85.6273 19.32 84.7206 18.4667 83.8673C17.4533 82.854 15.32 82.534 13.8267 83.174ZM17.9333 88.5606C17.9333 89.894 16.92 90.8006 15.4267 90.8006C13.9333 90.8006 13.2933 89.5206 14.2 88.4006C15.16 87.2273 17.9333 87.334 17.9333 88.5606Z" fill="white"/>
<path d="M35.2669 84.1339C32.4403 86.9606 34.4669 92.0806 38.3603 92.0806C39.6936 92.0806 40.7603 91.6539 41.7203 90.7472C42.8936 89.6272 43.0536 89.1472 42.8403 87.0672C42.5203 84.2406 41.027 82.8006 38.3603 82.8006C37.1336 82.8006 36.1203 83.2272 35.2669 84.1339ZM40.4403 84.7739C42.4136 86.5339 40.9736 91.3339 38.4669 91.3339C37.1869 91.3339 35.5336 89.3072 35.5336 87.7072C35.5336 84.5072 38.3069 82.8006 40.4403 84.7739Z" fill="white"/>
<path d="M45.4537 83.9738C45.507 84.6672 45.6137 86.6939 45.6137 88.5072C45.667 90.3739 45.8804 91.8672 46.2004 91.8672C46.5204 91.8672 46.7337 90.8005 46.7337 89.5205C46.7337 86.4272 47.4804 84.5605 48.867 84.1338C50.8937 83.4938 52.067 85.2005 52.067 88.7739C52.067 90.4805 52.2804 91.8672 52.6004 91.8672C52.9204 91.8672 53.1337 90.3205 53.1337 88.2405C53.1337 84.1872 52.2804 82.8005 49.9337 82.8005C49.2404 82.8005 48.227 83.1738 47.6937 83.7072C46.787 84.5072 46.7337 84.5072 46.7337 83.7072C46.7337 83.1738 46.4137 82.8005 46.0404 82.8005C45.6137 82.8005 45.347 83.2805 45.4537 83.9738Z" fill="white"/>
</svg>
