<svg width="108" height="61" viewBox="0 0 108 61" fill="none" xmlns="http://www.w3.org/2000/svg">
<path d="M34.1599 2.32049C33.0399 3.49382 31.9199 5.20049 31.7599 6.05383C31.5465 7.17383 31.2799 7.49383 30.9065 7.12049C30.2665 6.4805 26.8532 6.37383 25.9465 6.96049C25.0399 7.54716 24.1332 9.5205 24.1332 11.0138C24.1332 12.3472 23.9732 12.5605 21.4665 14.4805C20.2932 15.3872 20.1865 15.8138 20.2932 18.5338C20.4532 22.9605 20.2399 23.4938 17.7865 23.3872C15.2798 23.3338 13.0932 24.7205 12.1332 27.0138C11.5998 28.2405 10.6398 29.0405 8.71984 29.9472C4.29317 32.0805 0.666504 36.6672 0.666504 40.2939C0.666504 42.6939 3.22651 46.7472 6.05317 48.7739C9.99984 51.7072 14.7465 53.0405 20.9332 53.0405C23.7065 53.0405 27.1732 52.7739 28.6665 52.4005C33.8932 51.2272 39.1732 47.7605 40.9865 44.2939C41.9465 42.4272 41.9465 38.1605 40.9332 36.2405C40.1865 34.8005 40.2399 34.6405 41.6265 33.4138C42.4265 32.7205 43.6532 31.9738 44.3999 31.8138C47.4399 31.1205 48.8265 30.2672 49.5732 28.6138C50.6932 26.3205 50.1599 24.4538 48.0265 23.4405L46.2665 22.5338H49.3599C53.0399 22.5338 54.2132 22.0005 55.3332 19.8672C56.5065 17.6272 56.3465 15.9738 54.7999 14.5338L53.4665 13.2538L54.7465 11.9205C57.7332 8.66716 57.7332 5.62716 54.7999 2.48049C53.3065 0.880489 52.7732 0.667156 50.4265 0.667156C48.4532 0.667156 47.2265 1.04049 45.7332 2.05383C43.9732 3.22716 43.6532 3.28049 43.2265 2.58716C42.2132 0.72049 41.0399 0.133823 38.6932 0.133823C36.5065 0.133823 35.9732 0.40049 34.1599 2.32049ZM40.9332 3.06716C41.6799 3.76049 42.2665 4.61383 42.2665 4.93383C42.2665 5.89383 44.1332 5.52049 45.9999 4.13383C49.4665 1.57382 52.6665 1.84049 54.2665 4.93383C55.4932 7.28049 55.2265 8.61383 53.1999 10.4805C50.9065 12.6138 50.6932 14.5872 52.6665 15.4938C53.5732 15.9205 53.9999 16.5605 53.9999 17.4138C53.9999 19.6538 52.7199 20.4005 48.6665 20.4005C46.0532 20.4005 44.7732 20.6138 44.1865 21.2538C42.9599 22.4272 43.1199 23.0138 44.9865 24.0272C45.8932 24.5072 47.1199 25.3072 47.7065 25.7338C48.7199 26.5338 48.7199 26.5872 47.6532 27.9205C47.0665 28.7205 45.7865 29.4672 44.8265 29.6805C43.8665 29.8405 42.2132 30.6405 41.1465 31.3872L39.1732 32.7205L37.4132 31.6538C32.2932 28.5072 27.2799 32.6672 31.8665 36.1872C35.1732 38.6939 34.1065 40.6672 29.4665 40.6672C26.2132 40.6672 23.9732 41.5739 23.7065 42.9605C23.4932 43.9205 24.8799 44.2405 25.4665 43.3339C25.6265 43.0672 27.2799 42.8005 29.0932 42.8005C35.5999 42.8005 37.9465 39.3339 33.9999 35.5472C32.0265 33.7338 31.7599 32.9872 32.7199 32.3472C33.4132 31.9205 36.1865 34.4805 37.2532 36.5072C38.3199 38.5872 38.2132 42.7472 36.9865 44.5605C34.5332 48.2939 29.6265 50.8539 23.4932 51.6005L20.3999 51.9739V49.3072C20.3999 46.3205 22.3732 39.9205 24.7732 35.0672C29.0399 26.4805 37.5732 16.2405 45.0399 10.6938C47.0665 9.2005 48.5599 7.86716 48.3999 7.70716C48.0265 7.33383 42.4799 11.6005 38.5865 15.2805C30.8532 22.6405 22.0532 35.5472 17.9465 45.6805C16.5598 49.0405 15.5998 50.8005 15.0132 50.8005C13.4665 50.8005 8.71984 48.0805 7.11984 46.2139C4.87984 43.6539 4.07984 40.7205 4.87984 38.0005C5.57317 35.6538 8.29318 32.6672 10.7998 31.3338C12.2398 30.5872 12.3998 30.5872 12.3998 31.3338C12.3998 31.7605 12.1332 32.1338 11.7598 32.1338C10.7465 32.1338 7.59984 34.8005 6.47984 36.6138C4.93317 39.1739 5.25317 39.4939 7.33318 37.3605C9.57318 35.1205 12.6665 33.5205 13.8932 34.0005C14.5865 34.2672 14.1598 34.6938 12.1332 35.7072C8.98651 37.3072 7.22651 38.8005 6.21317 40.7739C5.19984 42.6939 5.94651 42.6939 7.81318 40.7205C9.30651 39.1739 12.7732 37.4138 15.7598 36.7205C17.2532 36.3472 17.2532 36.4005 17.4132 39.0672C17.4665 39.8672 17.7865 40.4005 18.2665 40.4005C18.8532 40.4005 19.1199 39.7072 19.2265 38.1072C19.3865 35.8672 19.2265 35.6005 16.6132 33.2005C14.3732 31.1205 13.8398 30.3205 13.8398 28.9338C13.8398 26.6938 15.7598 25.0938 17.9999 25.3605C20.1865 25.6805 20.8265 25.3605 21.7865 23.4405C22.4265 22.2672 22.5865 21.0405 22.3199 19.0138C21.9999 16.2938 22.0532 16.2405 23.8132 15.1738C25.2532 14.3205 25.6265 13.7338 25.8932 11.9205C26.0532 10.6938 26.4799 9.3605 26.7999 8.93383C27.7599 7.81383 29.3065 7.97383 29.9999 9.2005C30.8532 10.8005 32.5599 10.5872 32.9865 8.77383C33.7332 5.84049 35.3865 3.28049 37.0932 2.53382C39.3865 1.52049 39.4399 1.52049 40.9332 3.06716Z" fill="white"/>
<path d="M54.1068 27.7074C51.5468 29.8941 53.0935 34.8008 56.2935 34.8008C58.2135 34.8008 59.8668 32.9341 59.8668 30.8008C59.8668 27.3874 56.5601 25.6274 54.1068 27.7074ZM57.9468 28.1874C59.0668 29.2541 59.0135 32.0808 57.8935 33.3074C56.1335 35.2808 54.0001 33.9474 54.0001 30.8008C54.0001 27.7074 56.1335 26.3208 57.9468 28.1874Z" fill="white"/>
<path d="M63.3866 28.6674C62.9066 29.8408 62.1066 31.6541 61.5733 32.6674L60.6133 34.5874L61.9466 34.6941C62.9599 34.7474 63.1199 34.6408 62.5866 34.3208C61.3599 33.5208 62.3199 32.0274 63.9733 32.2408C65.1466 32.3474 65.4666 32.6674 65.4133 33.5741C65.4133 34.5341 65.68 34.8008 66.6933 34.8008C67.7066 34.8008 67.8666 34.6408 67.44 34.1074C67.12 33.7341 66.2666 31.9208 65.5733 30.0008L64.24 26.5341L63.3866 28.6674ZM64.6666 30.9074C64.6666 31.2808 64.2933 31.6008 63.8666 31.6008C63.0133 31.6008 62.8533 31.1208 63.3866 29.7341C63.6533 29.0408 63.8133 28.9874 64.1866 29.5741C64.4533 29.9474 64.6666 30.5874 64.6666 30.9074Z" fill="white"/>
<path d="M68.9335 27.6005C69.3601 28.1339 69.5201 29.5205 69.3601 31.5472C69.2001 34.2139 69.2535 34.6939 70.0001 34.6405C70.6401 34.5872 70.8001 34.1072 70.6401 32.7205L70.4801 30.8005L72.2401 32.8272C74.6935 35.6005 75.8135 35.3339 73.5201 32.5072L71.6001 30.1605L73.2001 28.6672C74.0535 27.8139 75.0668 27.3339 75.5468 27.4939C75.9735 27.6539 76.8268 29.2539 77.5201 31.0139C78.1601 32.8272 78.8535 34.2672 79.0668 34.2672C79.2801 34.2672 80.0268 32.8805 80.6668 31.1739C81.3601 29.5205 82.1601 27.8139 82.4268 27.4405C82.8001 26.9605 82.6401 26.8005 81.8401 26.8005C81.0935 26.8005 80.8268 27.0672 80.9868 27.7605C81.1468 28.2405 80.8268 29.6272 80.3468 30.8005L79.4401 32.9339L78.6401 31.0672C78.2135 30.0539 77.8401 28.6672 77.7868 28.0272C77.7335 26.9605 77.4668 26.8005 75.2268 26.8005C73.3601 26.8005 72.7735 26.9605 72.9868 27.4939C73.0935 27.8672 72.6135 28.7739 71.8668 29.4672L70.5335 30.6939V29.0939C70.5335 28.1872 70.8535 27.2805 71.2268 27.1739C71.5468 27.0139 71.0668 26.8539 70.0535 26.8539C68.5068 26.8005 68.3468 26.9072 68.9335 27.6005Z" fill="white"/>
<path d="M83.7599 27.1742C84.1866 27.3342 84.3999 28.6142 84.3999 30.8009C84.3999 32.9875 84.1866 34.2675 83.7599 34.4275C83.3866 34.5875 83.9199 34.7475 84.9333 34.7475C86.3199 34.8009 86.5866 34.6409 86.1066 34.1609C85.2533 33.3075 85.2533 27.4942 86.1599 27.1742C86.4799 27.0142 85.9466 26.9075 84.9333 26.9075C83.9199 26.9075 83.3866 27.0142 83.7599 27.1742Z" fill="white"/>
<path d="M88.3999 30.7473C88.3999 34.4806 88.4532 34.6406 89.6266 34.6406C90.5332 34.6406 90.6932 34.4806 90.3199 34.1073C89.5199 33.3073 89.5732 28.2406 90.3732 27.4406C90.8532 26.9606 90.7466 26.8006 89.7332 26.8006C88.4532 26.8006 88.3999 26.9073 88.3999 30.7473Z" fill="white"/>
<path d="M94.96 27.4408C95.76 28.2408 95.8133 33.3075 95.0133 34.1075C94.5333 34.5875 95.12 34.6942 97.2533 34.6408C99.92 34.5342 100.133 34.4275 100.293 33.2008L100.453 31.8675L99.6 33.0408C99.12 33.7342 98.2667 34.2675 97.68 34.2675C96.6667 34.2675 96.6133 34.0008 96.7733 30.5342C96.9333 26.8542 96.88 26.8008 95.6533 26.8008C94.5867 26.8008 94.48 26.9608 94.96 27.4408Z" fill="white"/>
<path d="M101.894 30.3206C102.054 32.7207 101.894 34.0007 101.467 34.2673C101.094 34.4807 102.214 34.6407 103.92 34.5873C106.587 34.534 107.067 34.374 107.28 33.4673C107.44 32.454 107.44 32.4007 106.374 33.3607C104.88 34.7473 103.387 34.3207 103.174 32.5073C103.014 31.3873 103.227 31.0673 104.08 31.0673C104.614 31.0673 105.254 31.3873 105.36 31.7073C105.52 32.0807 105.68 31.7073 105.68 30.854C105.734 29.6273 105.574 29.414 105.094 29.894C103.974 31.014 103.067 30.5873 103.067 28.934C103.067 27.6006 103.28 27.334 104.294 27.334C104.987 27.334 105.787 27.6006 106.16 27.974C106.64 28.454 106.8 28.4006 106.8 27.7073C106.8 26.9606 106.32 26.8006 104.294 26.8006H101.734L101.894 30.3206Z" fill="white"/>
<path d="M92.2936 33.7874C91.3869 34.7474 91.3869 34.8008 92.3469 34.8008C92.8803 34.8008 93.4669 34.3208 93.6269 33.7341C93.9469 32.4008 93.5203 32.4541 92.2936 33.7874Z" fill="white"/>
<path d="M53.8934 37.3073C50.9067 40.6673 54.48 46.214 57.7867 43.334L59.0667 42.214L57.6267 43.0673C56.2934 43.8673 56.1334 43.8673 55.12 42.854C53.8934 41.6273 53.6267 38.5873 54.64 37.574C55.7067 36.5073 57.52 36.8273 58.16 38.1073L58.7467 39.334V37.9473C58.8 36.774 58.5867 36.614 56.7734 36.5073C55.3867 36.4007 54.48 36.6673 53.8934 37.3073Z" fill="white"/>
<path d="M60.2934 37.0404C61.1467 37.8938 61.1467 43.1738 60.2934 43.4938C59.92 43.6538 60.24 43.8138 60.9867 43.8138C62.2134 43.8671 62.32 43.7071 62.1067 42.2138C61.9467 41.1471 62.1067 40.4004 62.5867 40.0804C63.2267 39.7071 63.2267 39.6004 62.5867 39.6004C62.1067 39.6004 61.9467 39.1204 62.1067 38.0004C62.32 36.5604 62.2134 36.4004 60.9867 36.4004C59.9734 36.4004 59.8134 36.5604 60.2934 37.0404Z" fill="white"/>
<path d="M64.9336 40.1342C64.9336 43.7609 64.9869 43.8675 66.2669 43.8142C67.0136 43.8142 67.2803 43.6542 66.9603 43.4942C66.5336 43.3342 66.2669 42.1075 66.2669 40.1342C66.2669 38.1609 66.5336 36.9342 66.9603 36.7742C67.2803 36.6142 67.0136 36.4542 66.2669 36.4542C64.9869 36.4009 64.9336 36.5075 64.9336 40.1342Z" fill="white"/>
<path d="M70.5335 38.8539C69.9468 40.1872 69.4668 41.4672 69.4668 41.7339C69.4668 42.0005 69.0935 42.5872 68.6135 43.0139C67.8668 43.8139 67.9201 43.8672 69.3068 43.8672C70.2668 43.8672 70.5868 43.7072 70.1068 43.4405C69.5735 43.0672 69.6268 42.4805 70.4801 40.6139C71.3335 38.6405 71.5468 38.4272 71.8668 39.3339C72.0801 39.9205 72.4535 40.9339 72.7735 41.5739C73.0935 42.1605 73.1468 42.9605 72.9868 43.2805C72.7201 43.6539 73.1468 43.8672 74.1068 43.8672C74.9068 43.8672 75.3335 43.6539 75.0135 43.4405C74.6935 43.2272 73.8401 41.5739 73.2001 39.7072C72.5601 37.8938 71.9201 36.4005 71.7601 36.4005C71.6535 36.4005 71.0668 37.5205 70.5335 38.8539Z" fill="white"/>
<path d="M76.2936 37.0405C77.1469 37.8938 77.1469 43.1738 76.2936 43.4938C75.9202 43.6538 76.3469 43.7605 77.2002 43.7605C78.1069 43.7605 78.4802 43.6538 78.1602 43.4938C77.7336 43.3338 77.4669 42.2138 77.5202 40.5071L77.5736 37.7338L78.6402 40.9338L79.7602 44.1338L81.2536 40.9338L82.6936 37.7338L82.7469 40.5071C82.8002 42.2138 82.5336 43.3338 82.1602 43.4938C81.7869 43.6538 82.0536 43.8138 82.8002 43.8138C84.0802 43.8671 84.1336 43.7605 84.1336 40.1338C84.1336 35.4404 83.0669 35.0671 81.3602 39.2271L80.2402 42.0005L79.6536 40.5071C79.3336 39.7071 78.8536 38.4805 78.5336 37.7338C78.2136 36.8804 77.6269 36.4004 76.8269 36.4004C75.9202 36.4004 75.8136 36.5604 76.2936 37.0405Z" fill="white"/>
<path d="M86.4267 36.7737C86.8 36.9337 87.0667 38.1604 87.0667 40.1337C87.0667 42.107 86.8 43.3337 86.4267 43.5471C86.0533 43.7071 86.9067 43.7604 88.3467 43.7071C91.5467 43.6004 92.6133 42.3737 91.12 40.7737C90.5333 40.0804 90.3733 39.6004 90.7467 39.3337C91.6 38.8004 91.44 37.0937 90.48 36.7204C90 36.5604 88.7733 36.4004 87.7067 36.4537C86.64 36.4537 86.0533 36.6137 86.4267 36.7737ZM90 38.267C90 38.8537 89.5733 39.387 89.0933 39.4937C88.3467 39.6537 88.1333 39.3337 88.1333 38.267C88.1333 37.2004 88.3467 36.8804 89.0933 37.0404C89.5733 37.147 90 37.6804 90 38.267ZM90.2133 40.8804C91.0133 41.8404 90.3733 43.3337 89.1467 43.3337C88.4 43.3337 88.1333 42.9604 88.1333 41.7337C88.1333 40.027 89.1467 39.6004 90.2133 40.8804Z" fill="white"/>
<path d="M93.3601 36.7738C93.7334 36.9338 94.0001 38.1604 94.0001 40.1338C94.0001 42.1071 93.7334 43.3338 93.3601 43.4938C92.9867 43.6538 94.1601 43.8138 96.0268 43.8138C99.1201 43.8671 99.3334 43.8138 99.3334 42.6404C99.2801 41.5738 99.2268 41.5738 98.7468 42.3738C98.4268 42.9604 97.5734 43.3338 96.6668 43.3338C95.2267 43.3338 95.0667 43.1738 95.0667 41.7338C95.0667 40.0804 95.9734 39.6538 97.0934 40.7738C97.5734 41.2538 97.7334 41.0938 97.7334 39.8671C97.7334 38.6404 97.5734 38.4804 97.0934 38.9604C96.0268 40.0271 95.0667 39.7071 95.0667 38.2671C95.0667 37.2538 95.3334 36.9338 96.2934 36.9338C96.9868 36.9338 97.7868 37.2004 98.1601 37.5738C98.6401 38.0538 98.8001 38.0004 98.8001 37.3071C98.8001 36.5604 98.2668 36.4004 95.7601 36.4538C94.0534 36.4538 92.9867 36.6138 93.3601 36.7738Z" fill="white"/>
<path d="M100.667 40.1339C100.667 43.7605 100.72 43.8672 102 43.8139C102.747 43.8139 103.014 43.6539 102.694 43.4939C101.894 43.2272 101.734 40.6672 102.48 40.6672C102.747 40.6672 103.494 41.3605 104.134 42.2672C104.774 43.1205 105.627 43.8672 106.107 43.8672C106.694 43.8672 106.534 43.4405 105.467 42.1605C104.24 40.7205 104.187 40.4005 104.88 40.0272C105.894 39.4405 106 37.9472 105.094 37.0405C104.72 36.6672 103.6 36.4005 102.587 36.4005H100.667V40.1339ZM104.454 37.7338C104.827 38.6939 103.814 40.1339 102.747 40.1339C102.267 40.1339 102 39.5472 102 38.5338C102 37.3072 102.214 36.9338 103.067 36.9338C103.654 36.9338 104.294 37.3072 104.454 37.7338Z" fill="white"/>
<path d="M1.3601 46.8008C2.58677 50.8008 7.97344 54.5875 14.5334 56.1341C21.8935 57.8941 34.7468 55.8675 34.1601 53.0408C33.9468 51.9741 32.9868 52.0275 28.9335 53.1475C27.2801 53.6275 23.9735 54.0008 21.2001 54.0008C13.0401 54.0008 6.74678 51.7075 2.90677 47.3341L0.773438 44.8808L1.3601 46.8008Z" fill="white"/>
<path d="M80.6134 48.2405C80.2401 48.8805 79.6001 50.0005 79.1734 50.6405C78.7468 51.3339 78.5334 51.8672 78.7468 51.8672C79.2268 51.8672 81.8401 47.5472 81.5734 47.2272C81.4134 47.0672 80.9868 47.5472 80.6134 48.2405Z" fill="white"/>
<path d="M1.41339 50.5339C4.08006 56.9339 11.5467 60.5606 21.7334 60.5072C28.9867 60.4539 35.8668 58.0006 33.9468 56.1339C33.6801 55.8672 31.8667 56.1339 29.7334 56.7206C27.3334 57.3606 24.3467 57.7339 21.2001 57.7339C12.9334 57.7339 6.80006 55.4406 2.80006 50.9606L0.560059 48.4006L1.41339 50.5339Z" fill="white"/>
<path d="M53.8935 54.9075C53.4669 55.4409 52.9335 56.2942 52.7735 56.8275C52.2935 58.0542 53.3602 60.2942 54.6402 60.6675C55.8669 61.0942 57.7335 60.5075 57.7335 59.7609C57.7335 59.4409 57.4135 59.4409 56.9335 59.8675C55.1202 61.3609 52.9869 58.5875 53.9469 55.9742C54.5869 54.3209 56.3469 54.0542 57.1469 55.4409C57.6269 56.2942 57.6802 56.2942 57.7335 55.5475C57.7335 53.8942 55.1202 53.4675 53.8935 54.9075Z" fill="white"/>
<path d="M59.7068 54.9605C58.5335 56.2939 58.5868 58.9605 59.7601 60.0272C61.8935 61.9472 64.6668 60.4005 64.6668 57.3605C64.6668 54.4805 61.5202 52.9339 59.7068 54.9605ZM62.9602 55.1739C63.9202 56.1339 63.7602 59.8139 62.7468 60.2405C61.3602 60.7739 60.1335 59.6539 59.9735 57.7872C59.7068 55.1205 61.4135 53.6272 62.9602 55.1739Z" fill="white"/>
<path d="M66.6403 55.1742C67.227 55.8675 68.027 57.3075 68.4003 58.4275C68.7736 59.6542 69.2536 60.2942 69.5203 60.0275C70.267 59.2809 67.547 54.0008 66.427 54.0008C65.6803 54.0008 65.6803 54.1608 66.6403 55.1742Z" fill="white"/>
<path d="M71.5468 54.3741C71.5468 54.6407 71.4401 56.1874 71.4401 57.8407C71.3335 60.2941 71.4935 60.9341 72.1335 60.9341C72.7735 60.9341 72.9335 60.1874 72.9335 57.4674C72.9335 55.0674 72.7201 54.0007 72.2935 54.0007C71.9201 54.0007 71.6001 54.1607 71.5468 54.3741Z" fill="white"/>
<path d="M75.1733 55.0141C75.8133 55.5474 76.6133 56.9341 76.9867 58.1607C77.5733 60.1341 78.5333 61.2007 78.5333 59.9207C78.5333 59.6541 78.6933 58.9607 78.8533 58.4274C79.0667 57.7341 79.0133 57.6274 78.64 58.2141C78.2667 58.7474 77.8933 58.3207 77.2 56.4541C76.5067 54.5874 75.9733 54.0007 75.12 54.0007L74 54.0541L75.1733 55.0141Z" fill="white"/>
<path d="M79.7067 55.3341C78.8534 57.1474 78.9067 57.6274 79.7601 56.4541C80.3467 55.6007 80.4534 55.6541 80.5601 56.8807C80.6134 57.6274 80.4001 58.8541 80.1334 59.6007C79.7067 60.7207 79.7601 60.9341 80.6134 60.9341C81.4667 60.9341 81.5201 60.6141 81.3067 58.2674C81.1467 56.5607 81.3067 55.3341 81.7334 54.8007C82.2667 54.1607 82.2134 54.0007 81.3601 54.0007C80.7734 54.0007 80.0267 54.5874 79.7067 55.3341Z" fill="white"/>
<path d="M83.6001 57.4674C83.6001 60.2407 83.7601 60.9341 84.4534 60.9341C85.0934 60.9341 85.2001 60.5074 85.0401 59.2274C84.8268 57.7341 84.9334 57.6274 85.9468 57.8941C86.8534 58.1074 87.0668 57.9474 87.0134 57.0407C87.0134 56.4007 86.8534 56.1874 86.6934 56.5074C86.2134 57.7341 84.9334 57.2541 84.9334 55.8674C84.9334 54.3741 86.3201 54.0541 87.5468 55.1741C88.1334 55.7607 88.2401 55.7074 88.0268 55.0674C87.8668 54.5874 86.9601 54.2141 85.6801 54.1074L83.6001 53.9474V57.4674Z" fill="white"/>
<path d="M90 57.4674C90 60.5074 90.1067 60.9341 91.0133 60.9341C91.8133 60.9341 91.8667 60.7741 91.3333 60.1874C90.96 59.6541 90.9067 59.0674 91.2267 58.4807C91.6533 57.7341 91.8667 57.8407 92.88 59.2807C93.52 60.1874 94.32 60.9341 94.5867 60.9341C94.9067 60.9341 94.5867 60.1874 93.9467 59.2274C93.0933 58.1074 92.9333 57.4674 93.36 57.3074C94.32 56.9874 94.16 54.6941 93.1467 54.3207C92.6667 54.1607 91.8133 54.0007 91.1733 54.0007C90.1067 54.0007 90 54.2674 90 57.4674ZM92.8267 56.0274C92.9867 56.8807 92.72 57.2007 91.9733 57.2007C91.2267 57.2007 90.96 56.8807 91.0667 55.9741C91.2267 54.4274 91.2267 54.4274 92.0267 54.6407C92.3467 54.8007 92.72 55.3874 92.8267 56.0274Z" fill="white"/>
<path d="M96.9867 54.8006C95.76 56.0806 95.4934 57.5739 96.24 59.1739C97.0934 60.9872 99.3334 61.4139 100.453 60.0272C101.147 59.1739 101.093 59.1206 100.293 59.7606C98.96 60.8272 97.3067 60.0806 96.9334 58.2672C96.2934 55.3339 99.0134 53.1472 100.347 55.4406C100.827 56.2939 100.88 56.2939 100.933 55.5472C100.933 53.9472 98.32 53.4672 96.9867 54.8006Z" fill="white"/>
<path d="M102.427 54.8006C102.64 55.2806 102.693 56.8273 102.533 58.3206L102.16 60.9873L104.613 60.8273C106.587 60.7206 107.12 60.454 107.227 59.6006C107.44 58.5873 107.387 58.5873 106.693 59.5473C105.68 60.8273 103.92 60.454 103.707 58.854C103.547 57.7873 103.707 57.6273 104.613 57.894C105.307 58.054 105.733 57.894 105.733 57.4673C105.733 57.0406 105.307 56.8806 104.667 57.0406C103.813 57.254 103.6 57.0406 103.6 55.9206C103.6 54.4273 104.987 54.0006 106.16 55.174C106.64 55.654 106.8 55.6006 106.8 54.9073C106.8 54.1606 106.32 54.0006 104.4 54.0006C102.32 54.0006 102 54.1606 102.427 54.8006Z" fill="white"/>
<path d="M75.3337 58.4274C75.3337 59.1207 75.067 59.9207 74.6937 60.2941C74.2137 60.7741 74.267 60.9341 75.1204 60.9341C76.027 60.9341 76.1337 60.6674 75.9737 59.0674C75.707 56.9341 75.3337 56.5607 75.3337 58.4274Z" fill="white"/>
<path d="M66.107 59.8674C65.8936 60.6674 66.107 60.9341 66.907 60.9341C67.867 60.9341 67.9203 60.8274 67.2803 59.9741C66.907 59.4941 66.5336 59.0141 66.4803 58.9074C66.427 58.8541 66.267 59.2274 66.107 59.8674Z" fill="white"/>
<path d="M87.0669 60.2407C85.7869 60.8807 85.7869 60.9341 86.9069 60.9341C87.5469 60.9341 88.2403 60.6674 88.4003 60.3474C88.9869 59.4941 88.5069 59.4407 87.0669 60.2407Z" fill="white"/>
</svg>
